<svg width="68" height="59" viewBox="0 0 68 59" fill="none" xmlns="http://www.w3.org/2000/svg">
<path d="M34 47.5278C38.25 47.5278 41.8625 46.0938 44.8375 43.2257C47.8125 40.3576 49.3 36.875 49.3 32.7778C49.3 28.6806 47.8125 25.1979 44.8375 22.3299C41.8625 19.4618 38.25 18.0278 34 18.0278C29.75 18.0278 26.1375 19.4618 23.1625 22.3299C20.1875 25.1979 18.7 28.6806 18.7 32.7778C18.7 36.875 20.1875 40.3576 23.1625 43.2257C26.1375 46.0938 29.75 47.5278 34 47.5278ZM34 40.9722C31.62 40.9722 29.6083 40.1801 27.965 38.5958C26.3217 37.0116 25.5 35.0722 25.5 32.7778C25.5 30.4833 26.3217 28.544 27.965 26.9597C29.6083 25.3755 31.62 24.5833 34 24.5833C36.38 24.5833 38.3917 25.3755 40.035 26.9597C41.6783 28.544 42.5 30.4833 42.5 32.7778C42.5 35.0722 41.6783 37.0116 40.035 38.5958C38.3917 40.1801 36.38 40.9722 34 40.9722ZM6.8 59C4.93 59 3.32917 58.3581 1.9975 57.0743C0.665833 55.7905 0 54.2472 0 52.4444V13.1111C0 11.3083 0.665833 9.76505 1.9975 8.48125C3.32917 7.19745 4.93 6.55556 6.8 6.55556H17.51L23.8 0H44.2L50.49 6.55556H61.2C63.07 6.55556 64.6708 7.19745 66.0025 8.48125C67.3342 9.76505 68 11.3083 68 13.1111V52.4444C68 54.2472 67.3342 55.7905 66.0025 57.0743C64.6708 58.3581 63.07 59 61.2 59H6.8ZM6.8 52.4444H61.2V13.1111H47.43L41.225 6.55556H26.775L20.57 13.1111H6.8V52.4444Z" fill="#B9B9B9"/>
</svg>
