<svg width="221" height="219" viewBox="0 0 221 219" fill="none" xmlns="http://www.w3.org/2000/svg">
<path d="M4.78197 69.2477V2.39099L2.39099 4.78197H74.0225C77.0997 4.78197 77.1045 0 74.0225 0H2.39099C1.09746 0 0 1.09507 0 2.39099V69.2477C0 72.3249 4.78197 72.3297 4.78197 69.2477Z" fill="#B9B9B9"/>
<path d="M215.495 149.752V216.609L217.886 214.218C209.785 214.218 201.684 214.218 193.584 214.218C180.766 214.218 167.948 214.218 155.127 214.218H146.252C143.175 214.218 143.17 219 146.252 219C154.352 219 162.453 219 170.554 219C183.372 219 196.19 219 209.01 219H217.886C219.179 219 220.277 217.905 220.277 216.609V149.752C220.277 146.675 215.495 146.67 215.495 149.752Z" fill="#B9B9B9"/>
<path d="M69.2477 214.218H2.39099L4.78197 216.609C4.78197 208.508 4.78197 200.408 4.78197 192.307C4.78197 179.489 4.78197 166.671 4.78197 153.85V144.975C4.78197 141.898 0 141.893 0 144.975C0 153.076 0 161.176 0 169.277C0 182.095 0 194.913 0 207.734V216.609C0 217.903 1.09507 219 2.39099 219H69.2477C72.3249 219 72.3297 214.218 69.2477 214.218Z" fill="#B9B9B9"/>
<path d="M151.029 4.78197H217.886L215.495 2.39099V26.693C215.495 39.511 215.495 52.3291 215.495 65.1496V74.0249C215.495 77.1021 220.277 77.1069 220.277 74.0249C220.277 65.9243 220.277 57.8236 220.277 49.7229C220.277 36.9049 220.277 24.0868 220.277 11.2663V2.39099C220.277 1.09746 219.182 0 217.886 0H151.029C147.952 0 147.947 4.78197 151.029 4.78197Z" fill="#B9B9B9"/>
</svg>
