<svg width="74" height="59" viewBox="0 0 74 59" fill="none" xmlns="http://www.w3.org/2000/svg">
<path d="M45.8349 44.0717H69.3131C69.7882 44.0717 70.1777 43.6859 70.1777 43.2057V36.9643C70.1777 36.4885 69.7925 36.0984 69.3131 36.0984H45.8349C45.3597 36.0984 44.9702 36.4842 44.9702 36.9643V43.2057C44.9702 43.6816 45.3555 44.0717 45.8349 44.0717ZM46.6995 37.8302H68.4484V42.3398H46.6995V37.8302Z" fill="#E42529"/>
<path d="M23.6451 51.7362V52.495C23.6451 53.7553 24.574 55.1527 25.9138 55.1527H29.4708C30.1942 57.0732 32.0434 58.4492 34.2135 58.4492C36.3837 58.4492 38.2329 57.0775 38.9563 55.1527H58.184C58.9074 57.0732 60.7565 58.4492 62.9224 58.4492C65.0883 58.4492 66.9417 57.0775 67.6651 55.1527H68.8679C71.3378 55.1527 73.5379 52.8465 73.5807 50.223L73.6535 45.7949H69.052H64.7116H62.9952H52.0244H47.7012H43.4678V27.6707C43.6305 27.4649 43.699 27.1863 43.6219 26.9119C43.4935 26.4747 43.0398 26.2218 42.5989 26.3461L35.7374 28.3351C31.7994 29.4797 29.1541 33.0248 29.1541 37.1657V40.4536L28.0797 40.7194C25.7939 41.281 24.1973 43.1457 24.1973 45.2547V50.2059C24.1973 50.2059 24.1973 50.2402 24.2016 50.253C23.9319 50.5317 23.6494 50.9989 23.6494 51.732M30.8063 36.9728L36.8931 36.9857C36.7561 37.9245 36.3666 39.0133 35.4891 39.1633L30.802 39.9564V37.17C30.802 37.1057 30.8106 37.0414 30.8106 36.9728M41.8156 49.64H37.6422C36.739 48.8041 35.5362 48.2897 34.2135 48.2897C32.8909 48.2897 31.6924 48.7999 30.7892 49.6358H25.8538V45.2633C25.8538 43.7673 27.1722 42.657 28.4778 42.3355L30.1814 41.9154C30.3355 41.8768 30.4682 41.7868 30.5709 41.6796L35.7716 40.8009C37.869 40.4451 38.6138 38.0831 38.6138 36.1669V35.3396L31.0289 35.3267C31.6581 32.759 33.58 30.6971 36.1997 29.9341L41.8156 28.3051L41.8242 49.6443L41.8156 49.64ZM59.1942 53.3695C59.1942 51.3119 60.8678 49.6358 62.9224 49.6358C64.977 49.6358 66.6507 51.3119 66.6507 53.3695C66.6507 55.4271 64.977 57.1032 62.9224 57.1032C60.8678 57.1032 59.1942 55.4271 59.1942 53.3695ZM38.8321 51.2947L54.8624 51.3033C54.8624 50.3902 54.1218 49.6486 53.2101 49.6486L43.4593 49.64V47.4453H71.967L71.9199 50.193C71.8899 51.9206 70.4303 53.4981 68.8551 53.4981H67.9776C67.9776 53.4552 67.9862 53.4123 67.9862 53.3695C67.9862 50.5703 65.709 48.2897 62.9139 48.2897C60.1187 48.2897 57.8415 50.5703 57.8415 53.3695C57.8415 53.4123 57.8458 53.4552 57.8501 53.4981H39.2645C39.2645 53.4552 39.273 53.4123 39.273 53.3695C39.273 52.6279 39.1104 51.9291 38.8236 51.2947M30.4853 53.3695C30.4853 51.3119 32.1589 49.6358 34.2135 49.6358C36.2681 49.6358 37.9418 51.3119 37.9418 53.3695C37.9418 55.4271 36.2681 57.1032 34.2135 57.1032C32.1589 57.1032 30.4853 55.4271 30.4853 53.3695ZM25.2974 51.7362C25.2974 51.6248 25.3145 51.4748 25.3958 51.4019C25.4772 51.329 25.6655 51.2904 25.8496 51.2861H29.5907C29.3039 51.9249 29.1412 52.6279 29.1412 53.3695C29.1412 53.4123 29.1455 53.4552 29.1498 53.4981H25.9138C25.6569 53.4981 25.2974 52.9922 25.2974 52.495V51.7362Z" fill="#E42529"/>
<path d="M61.0775 51.522C60.5896 52.0106 60.3156 52.6751 60.3156 53.3695C60.3156 54.064 60.5896 54.7284 61.0775 55.2171C61.5655 55.7058 62.229 55.9844 62.9224 55.9844C63.6158 55.9844 64.2793 55.7101 64.7673 55.2171C65.2552 54.7284 65.5335 54.064 65.5335 53.3695C65.5335 52.6751 65.2595 52.0106 64.7673 51.522C64.2793 51.0333 63.6158 50.7546 62.9224 50.7546C62.229 50.7546 61.5655 51.029 61.0775 51.522ZM61.6169 53.3695C61.6169 53.0223 61.7538 52.6922 61.9978 52.4479C62.2418 52.2035 62.5757 52.0664 62.9181 52.0664C63.2606 52.0664 63.5944 52.2035 63.8384 52.4479C64.0824 52.6922 64.2194 53.0266 64.2194 53.3695C64.2194 53.7125 64.0824 54.0468 63.8384 54.2912C63.5944 54.5355 63.2606 54.6727 62.9181 54.6727C62.5757 54.6727 62.2418 54.5355 61.9978 54.2912C61.7538 54.0468 61.6169 53.7125 61.6169 53.3695Z" fill="#E42529"/>
<path d="M32.3686 51.522C31.8806 52.0106 31.6067 52.6751 31.6067 53.3695C31.6067 54.064 31.8806 54.7284 32.3686 55.2171C32.8566 55.7058 33.52 55.9844 34.2135 55.9844C34.9069 55.9844 35.5704 55.7101 36.0583 55.2171C36.5506 54.7284 36.8245 54.064 36.8245 53.3695C36.8245 52.6751 36.5506 52.0106 36.0583 51.522C35.5704 51.0333 34.9069 50.7546 34.2135 50.7546C33.52 50.7546 32.8566 51.029 32.3686 51.522ZM32.9079 53.3695C32.9079 53.0223 33.0449 52.6922 33.2889 52.4479C33.5329 52.2035 33.8668 52.0664 34.2092 52.0664C34.5516 52.0664 34.8855 52.2035 35.1295 52.4479C35.3735 52.6922 35.5104 53.0266 35.5104 53.3695C35.5104 53.7125 35.3735 54.0468 35.1295 54.2912C34.8855 54.5355 34.5516 54.6727 34.2092 54.6727C33.8668 54.6727 33.5329 54.5355 33.2889 54.2912C33.0449 54.0468 32.9079 53.7125 32.9079 53.3695Z" fill="#E42529"/>
<path d="M22.7805 58.8693H45.6423C46.0746 58.8693 46.4256 58.5178 46.4256 58.0849C46.4256 57.6519 46.0746 57.3004 45.6423 57.3004H22.7805C22.3482 57.3004 21.9972 57.6519 21.9972 58.0849C21.9972 58.5178 22.3482 58.8693 22.7805 58.8693Z" fill="#E42529"/>
<path d="M50.3123 58.8693H73.1741C73.6064 58.8693 73.9574 58.5178 73.9574 58.0849C73.9574 57.6519 73.6064 57.3004 73.1741 57.3004H50.3123C49.8799 57.3004 49.5289 57.6519 49.5289 58.0849C49.5289 58.5178 49.8799 58.8693 50.3123 58.8693Z" fill="#E42529"/>
<path d="M55.9324 29.2782H53.1116C51.9388 29.2782 50.98 30.2341 50.98 31.413V32.5061C50.98 32.9133 51.3139 33.2477 51.7205 33.2477H55.9324C56.3391 33.2477 56.673 32.9133 56.673 32.5061V30.0198C56.673 29.6126 56.3434 29.2782 55.9324 29.2782ZM55.1919 31.7688H52.461V31.413C52.461 31.0529 52.7521 30.7614 53.1116 30.7614H55.1919V31.7688Z" fill="#E42529"/>
<path d="M51.7719 36.3255L52.277 35.2924L62.229 35.2624L62.9395 36.3212H64.6175L63.9326 35.3053H65.7047H65.7133C66.0942 35.3053 66.4581 35.151 66.732 34.8809C67.0188 34.5937 67.1772 34.2122 67.1772 33.8006L67.2029 22.981C67.2029 22.0722 66.4837 21.3306 65.602 21.3263L60.5339 21.3135C59.7292 21.3135 59.0015 21.8365 58.719 22.6166L58.2054 24.0527L13.1452 0.265775C13.1153 0.248628 13.081 0.248628 13.0468 0.235768C12.7728 0.0943071 12.4732 0 12.1436 0C11.0264 0 10.1232 0.90878 10.1232 2.02332C10.1232 2.66204 10.44 3.21074 10.9066 3.58368C10.9494 3.63084 10.9793 3.68228 11.035 3.71657L11.4116 3.97377V9.27642C10.2174 9.60221 9.33563 10.6867 9.33563 11.9856C9.33563 13.5417 10.5984 14.8063 12.1522 14.8063C13.706 14.8063 14.9687 13.5417 14.9687 11.9856C14.9687 11.5784 14.6391 11.244 14.2282 11.244C13.8172 11.244 13.4877 11.5741 13.4877 11.9856C13.4877 12.7272 12.8884 13.3274 12.1479 13.3274C11.4074 13.3274 10.8081 12.7272 10.8081 11.9856C10.8081 11.244 11.4074 10.6439 12.1479 10.6439C12.5545 10.6439 12.8884 10.3138 12.8884 9.90228C12.8884 9.85941 12.8713 9.82512 12.8627 9.78654C12.8713 9.74796 12.8884 9.71367 12.8884 9.6708V4.98972L49.4134 28.1722C49.4134 28.1722 49.4048 28.1722 49.4048 28.1808C48.63 28.991 48.202 30.0712 48.1977 31.2243V33.7621C48.1892 34.5894 48.8441 35.271 49.6531 35.2753H50.9843L50.3379 36.3298H51.7719V36.3255ZM12.1479 1.47891C12.4475 1.47891 12.6958 1.72325 12.6958 2.02332C12.6958 2.32339 12.4518 2.57202 12.1479 2.57202C11.844 2.57202 11.6 2.32768 11.6 2.02332C11.6 1.71897 11.844 1.47891 12.1479 1.47891ZM13.4192 3.55796C13.7659 3.27075 13.9927 2.88066 14.0869 2.42627L57.7003 25.4587L57.3193 26.5175C57.2337 26.7533 57.024 26.9119 56.7971 26.9119L52.3412 26.8991H52.3283C51.7548 26.8991 51.2026 27.0234 50.6932 27.2549L13.4192 3.55796ZM49.6745 31.2243C49.6745 30.457 49.9613 29.7368 50.4706 29.201C50.9714 28.6737 51.6306 28.3865 52.3326 28.3865H52.3412L56.7971 28.3994H56.8014C57.6489 28.3994 58.4151 27.8464 58.7105 27.0234L60.1059 23.1268C60.1787 22.9296 60.3413 22.801 60.5297 22.801L65.5977 22.8138C65.6576 22.8138 65.7261 22.8867 65.7261 22.9896L65.7133 33.8307L49.6702 33.7664V31.2286L49.6745 31.2243Z" fill="#E42529"/>
<path d="M62.9609 24.0913H62.1305C60.9277 24.0913 59.9518 25.0687 59.9518 26.2732V29.8226C59.9518 31.0272 60.9277 32.0046 62.1305 32.0046H62.9609C64.1637 32.0046 65.1397 31.0272 65.1397 29.8226V26.2732C65.1397 25.0687 64.1637 24.0913 62.9609 24.0913ZM63.6629 29.8226C63.6629 30.2084 63.3505 30.5256 62.9652 30.5256H62.1348C61.7453 30.5256 61.4328 30.2127 61.4328 29.8226V26.2732C61.4328 25.8874 61.7453 25.5702 62.1348 25.5702H62.9652C63.3505 25.5702 63.6629 25.8874 63.6629 26.2732V29.8226Z" fill="#E42529"/>
<path d="M23.7821 20.2333H21.7275C21.445 20.2333 21.2138 20.4648 21.2138 20.7477V20.8677L13.7402 15.3379C14.2196 14.7635 14.3352 13.9704 14.0484 13.2803C13.8857 12.7187 13.1752 12.2857 13.1752 12.2857C12.8627 12.0971 12.5117 11.9985 12.1479 11.9985C11.5871 11.9985 11.0564 12.23 10.6668 12.633C10.6668 12.633 10.1746 13.1259 10.1232 13.7218C10.1061 13.8332 10.0933 13.949 10.0933 14.0604C10.0933 14.5277 10.2602 14.9821 10.5556 15.3422L3.08191 20.872V20.752C3.08191 20.4691 2.85077 20.2376 2.56826 20.2376H0.513653C0.231144 20.2376 0 20.4691 0 20.752V36.197C0 36.4799 0.231144 36.7114 0.513653 36.7114H23.7864C24.0689 36.7114 24.3 36.4799 24.3 36.197V20.752C24.3 20.4691 24.0689 20.2376 23.7864 20.2376M2.05033 35.6783H1.02302V21.2664H2.05033V35.6783ZM12.1436 13.0659C12.6829 13.0659 13.1195 13.5032 13.1195 14.0433C13.1195 14.5834 12.6829 15.0207 12.1436 15.0207C11.6043 15.0207 11.1677 14.5834 11.1677 14.0433C11.1677 13.5032 11.6043 13.0659 12.1436 13.0659ZM11.2618 16.1138C11.2618 16.1138 11.6642 16.3067 12.1479 16.3067C12.6316 16.3067 13.0339 16.1138 13.0339 16.1138L19.8741 21.2621H4.42597L11.2661 16.1138H11.2618ZM21.2138 35.6783H3.07763V22.2952H21.2138V35.6783ZM23.2684 35.6783H22.2411V21.2664H23.2684V35.6783Z" fill="#E42529"/>
<path d="M6.67745 23.324H4.62284C4.34034 23.324 4.10919 23.5555 4.10919 23.8384V34.135C4.10919 34.418 4.34034 34.6494 4.62284 34.6494H6.67745C6.95996 34.6494 7.19111 34.418 7.19111 34.135V23.8384C7.19111 23.5555 6.95996 23.324 6.67745 23.324ZM6.1638 33.6163H5.1365V24.3485H6.1638V33.6163Z" fill="#E42529"/>
<path d="M11.0093 23.324H8.95469C8.67218 23.324 8.44104 23.5555 8.44104 23.8384V34.135C8.44104 34.418 8.67218 34.6494 8.95469 34.6494H11.0093C11.2918 34.6494 11.523 34.418 11.523 34.135V23.8384C11.523 23.5555 11.2918 23.324 11.0093 23.324ZM10.4956 33.6163H9.46834V24.3485H10.4956V33.6163Z" fill="#E42529"/>
<path d="M15.3411 23.324H13.2865C13.004 23.324 12.7728 23.5555 12.7728 23.8384V34.135C12.7728 34.418 13.004 34.6494 13.2865 34.6494H15.3411C15.6236 34.6494 15.8547 34.418 15.8547 34.135V23.8384C15.8547 23.5555 15.6236 23.324 15.3411 23.324ZM14.8232 33.6163H13.7959V24.3485H14.8232V33.6163Z" fill="#E42529"/>
<path d="M19.6729 23.324H17.6183C17.3358 23.324 17.1046 23.5555 17.1046 23.8384V34.135C17.1046 34.418 17.3358 34.6494 17.6183 34.6494H19.6729C19.9554 34.6494 20.1865 34.418 20.1865 34.135V23.8384C20.1865 23.5555 19.9554 23.324 19.6729 23.324ZM19.1549 33.6163H18.1276V24.3485H19.1549V33.6163Z" fill="#E42529"/>
</svg>
