<?xml version="1.0" encoding="UTF-8"?>
<svg id="Capa_1" xmlns="http://www.w3.org/2000/svg" version="1.1" viewBox="0 0 221.94 216.95">
  <!-- Generator: Adobe Illustrator 29.4.0, SVG Export Plug-In . SVG Version: 2.1.0 Build 152)  -->
  <defs>
    <style>
      .st0 {
        fill: #e42529;
      }
    </style>
  </defs>
  <path class="st0" d="M40.12,72.29h-4.54c-1.8,0-3.27,1.46-3.27,3.27v2.09c-.97.57-1.64,1.61-1.64,2.81v1.64c0,1.2.66,2.25,1.64,2.81v36.89c-.97.57-1.64,1.61-1.64,2.81v1.64c0,1.8,1.47,3.27,3.27,3.27h55.93c1.8,0,3.27-1.47,3.27-3.27v-1.64c0-1.2-.66-2.25-1.63-2.81v-36.89c.97-.57,1.63-1.61,1.63-2.82v-1.63c0-1.2-.66-2.25-1.63-2.82h0s0-2.09,0-2.09c0-1.81-1.46-3.27-3.27-3.27h-4.54s-3.39-.23-3.39,2.03c-.16.38-.25.8-.25,1.24v1.63h-36.3v-1.63c0-.44-.09-.86-.25-1.24,0,0,.13-2.03-3.38-2.03M35.58,85.37h52.66v35.98h-52.66v-35.98ZM33.94,80.47h55.93v1.63h-55.93v-1.63ZM88.23,77.2h-4.91v-1.63h4.91v1.63ZM35.58,75.56h4.91v1.63h-4.91v-1.63ZM89.87,126.26h-55.93v-1.63h55.93v1.63Z"/>
  <path class="st0" d="M43.92,95.19c.9,0,1.63-.73,1.63-1.63v-4.03c0-.91-.73-1.63-1.63-1.63s-1.64.73-1.64,1.63v4.03c0,.9.74,1.63,1.64,1.63"/>
  <path class="st0" d="M52.91,95.19c.9,0,1.63-.73,1.63-1.63v-4.03c0-.91-.73-1.63-1.63-1.63s-1.64.73-1.64,1.63v4.03c0,.9.74,1.63,1.64,1.63"/>
  <path class="st0" d="M70.9,95.19c.9,0,1.64-.73,1.64-1.63v-4.03c0-.91-.74-1.63-1.64-1.63s-1.63.73-1.63,1.63v4.03c0,.9.73,1.63,1.63,1.63"/>
  <path class="st0" d="M61.9,95.19c.9,0,1.63-.73,1.63-1.63v-4.03c0-.91-.73-1.63-1.63-1.63s-1.64.73-1.64,1.63v4.03c0,.9.74,1.63,1.64,1.63"/>
  <path class="st0" d="M79.89,95.19c.9,0,1.64-.73,1.64-1.63v-4.03c0-.91-.74-1.63-1.64-1.63s-1.63.73-1.63,1.63v4.03c0,.9.73,1.63,1.63,1.63"/>
  <path class="st0" d="M83.58,119.35h-43.36c-.98,0-1.77-.79-1.77-1.77v-10.69c0-.44.17-.87.47-1.2l6.76-7.35c.34-.36.81-.57,1.31-.57h29.74c.49,0,.96.21,1.29.57l6.86,7.35c.31.33.48.76.48,1.21v10.69c0,.98-.8,1.77-1.77,1.77M42,115.81h39.81v-8.22l-5.85-6.27h-28.19l-5.77,6.27v8.22Z"/>
  <path class="st0" d="M51.98,105.94c1.52,0,2.76,1.23,2.76,2.75s-1.24,2.76-2.76,2.76-2.76-1.23-2.76-2.76,1.24-2.75,2.76-2.75M51.98,103.11c-3.08,0-5.58,2.5-5.58,5.58s2.5,5.58,5.58,5.58,5.58-2.5,5.58-5.58-2.5-5.58-5.58-5.58"/>
  <path class="st0" d="M78.83,113.95h-17.65c-.74,0-1.34-.6-1.34-1.34v-8.09c0-.74.6-1.34,1.34-1.34h13.24c.4,0,.77.17,1.02.47l4.41,5.2c.21.24.32.55.32.87v2.89c0,.74-.6,1.34-1.34,1.34M62.52,111.26h14.97v-1.05l-3.69-4.35h-11.28v5.4Z"/>
  <path class="st0" d="M118.65,165.22h-6.88c-3.25,0-5.91-2.65-5.91-5.91v-50.03c0-21.21,17.25-38.46,38.46-38.46h18.21c3.74,0,6.77,3.04,6.77,6.77v17.81c0,1.14-.92,2.06-2.06,2.06s-2.05-.92-2.05-2.06v-17.81c0-1.46-1.19-2.65-2.66-2.65h-18.21c-18.94,0-34.35,15.41-34.35,34.35v50.03c0,.99.8,1.8,1.8,1.8h6.88c1.14,0,2.05.92,2.05,2.06s-.92,2.06-2.05,2.06"/>
  <path class="st0" d="M178.09,97.75h-20.89c-1.14,0-2.05-.92-2.05-2.06s.92-2.06,2.05-2.06h20.89c1.14,0,2.05.92,2.05,2.06s-.92,2.06-2.05,2.06"/>
  <path class="st0" d="M173.13,107.12h-20.89c-1.14,0-2.05-.92-2.05-2.06s.92-2.06,2.05-2.06h20.89c1.14,0,2.05.92,2.05,2.06s-.92,2.06-2.05,2.06"/>
  <path class="st0" d="M126.99,133.87h-8.34c-1.11,0-2-.89-2-2s.89-2,2-2h8.34c1.1,0,2,.89,2,2s-.89,2-2,2"/>
  <path class="st0" d="M126.99,141.96h-8.34c-1.11,0-2-.89-2-2s.89-2,2-2h8.34c1.1,0,2,.89,2,2s-.89,2-2,2"/>
  <path class="st0" d="M167.66,165.16h-8.34c-1.11,0-2-.89-2-2s.89-2,2-2h6.34v-16.62c0-1.11.89-2,2-2h8.31c1.1,0,2,.89,2,2s-.89,2-2,2h-6.31v16.62c0,1.11-.89,2-2,2"/>
  <path class="st0" d="M180.61,107.11c-.27,0-.55-.03-.79-.14-.27-.1-.48-.27-.69-.44-.38-.41-.58-.93-.58-1.47,0-.52.21-1.06.58-1.44.58-.58,1.48-.75,2.26-.44.24.11.44.24.65.44.38.38.61.93.61,1.44,0,.55-.24,1.06-.61,1.47-.21.17-.41.34-.65.44-.27.11-.51.14-.79.14"/>
  <path class="st0" d="M154.35,133.93h-20.89c-1.14,0-2.05-.92-2.05-2.06s.92-2.06,2.05-2.06h20.89c1.14,0,2.05.92,2.05,2.06s-.92,2.06-2.05,2.06"/>
  <path class="st0" d="M161.83,133.92c-.27,0-.55-.03-.79-.14-.27-.1-.48-.27-.69-.44-.38-.41-.58-.93-.58-1.47,0-.52.21-1.06.58-1.44.58-.58,1.48-.75,2.26-.44.24.11.44.24.65.44.38.38.61.93.61,1.44,0,.55-.24,1.06-.61,1.47-.21.17-.41.34-.65.44-.27.11-.51.14-.79.14"/>
  <path class="st0" d="M137.41,179.78c-7.85,0-14.23-6.38-14.23-14.23s6.38-14.23,14.23-14.23,14.23,6.38,14.23,14.23-6.38,14.23-14.23,14.23M137.41,155.32c-5.64,0-10.23,4.59-10.23,10.23s4.59,10.23,10.23,10.23,10.23-4.59,10.23-10.23-4.59-10.23-10.23-10.23"/>
  <path class="st0" d="M137.41,172.73c-3.96,0-7.18-3.22-7.18-7.18s3.22-7.18,7.18-7.18,7.18,3.22,7.18,7.18-3.22,7.18-7.18,7.18M137.41,162.37c-1.75,0-3.18,1.43-3.18,3.18s1.43,3.18,3.18,3.18,3.18-1.43,3.18-3.18-1.43-3.18-3.18-3.18"/>
  <path class="st0" d="M108.25,119.33h-.09c-1.29-.05-2.29-1.14-2.24-2.42.29-7.39,8.66-7.96,17.53-8.57,3.08-.21,6.25-.43,9.33-.91,6.48-1.01,8.7-5.32,9.45-8.09h-30.56c-1.29,0-2.33-1.04-2.33-2.33s1.04-2.33,2.33-2.33h33.28c.62,0,1.23.25,1.66.69s.68,1.04.67,1.67c-.06,4.45-3.01,13.32-13.79,15-3.28.51-6.55.74-9.73.95-8.13.56-13.08,1.12-13.2,4.1-.05,1.26-1.08,2.24-2.33,2.24"/>
  <path class="st0" d="M175.97,180.11h-68.05c-1.29,0-2.33-1.04-2.33-2.33s1.05-2.33,2.33-2.33h68.05c1.29,0,2.33,1.04,2.33,2.33s-1.04,2.33-2.33,2.33"/>
  <path class="st0" d="M74.44,149.68c-9.6,0-13.1-5.19-14.32-8.29-.47-1.18-.32-2.51.39-3.56.74-1.08,1.97-1.73,3.31-1.73l32.91-.21V41.51c0-1.8.82-3.4,2.13-4.18,1.06-.63,2.29-.66,3.38-.07,3.04,1.65,8.13,6.31,8.07,19.01v52.45h-4.11v-52.46c.04-9.69-3.09-13.53-5.33-15.04-.01.08-.02.17-.02.28v98.48l-36.75.23c1.13,2.52,3.84,5.35,10.37,5.35h32.75v4.12h-32.76Z"/>
  <path class="st0" d="M189.22,165.23h-12.05c-1.13,0-2.05-.92-2.05-2.06v-49.36c0-1.14.92-2.06,2.05-2.06s2.06.92,2.06,2.06v47.3h9.99c1.14,0,2.05.92,2.05,2.06s-.92,2.06-2.05,2.06"/>
</svg>