<?xml version="1.0" encoding="UTF-8"?>
<svg id="Capa_1" xmlns="http://www.w3.org/2000/svg" version="1.1" viewBox="0 0 221.94 216.95">
  <!-- Generator: Adobe Illustrator 29.4.0, SVG Export Plug-In . SVG Version: 2.1.0 Build 152)  -->
  <defs>
    <style>
      .st0 {
        fill: #e42529;
      }
    </style>
  </defs>
  <path class="st0" d="M59.7,126.77h-.76l-19.88-2.47c-2.6-.32-4.98-1.6-6.68-3.59-1.7-1.99-2.59-4.55-2.49-7.17.09-2.62,1.17-5.1,3.01-6.96l25-24.85c1.11-1.1,2.9-1.1,4,0l1.19,1.19c.73.73,1,1.8.72,2.79s-1.08,1.75-2.08,1.98c-.79.09-1.35.8-1.25,1.59.09.79.8,1.34,1.59,1.25h.37c0-1.57,1.27-2.84,2.84-2.84s2.84,1.27,2.84,2.84c.01,2.08.76,4.09,2.1,5.68.83,1.04.83,2.51,0,3.55l-2.24,2.84c.03.25.03.51,0,.76v15.17c-.02,2.18-.89,4.27-2.44,5.81s-3.64,2.41-5.83,2.42ZM59.48,121.08h.23c1.44,0,2.61-1.17,2.61-2.61v-12.5c-.72-.4-1.23-1.1-1.4-1.92-.16-.81.04-1.66.55-2.31l2.84-3.72c-.28-.6-.53-1.22-.74-1.85h-1.62c-1.36,0-2.69-.39-3.83-1.13-1.14-.73-2.05-1.78-2.62-3.02l-18.6,18.58c-.84.85-1.33,1.99-1.38,3.19-.04,1.2.37,2.36,1.15,3.27.78.91,1.87,1.49,3.06,1.63l19.74,2.39Z"/>
  <path class="st0" d="M60.98,87.77c-.75.02-1.47-.26-2.02-.77l-1.08-1.28c-1.1-1.11-1.1-2.9,0-4l7.1-7.1c1.04-.76,2.47-.72,3.46.09,1,.81,1.33,2.2.8,3.37-.85,1.38-1.3,2.98-1.3,4.6v2.13c0,.76-.3,1.48-.83,2.01-.53.53-1.25.83-2.01.83h-3.5l-.62.11Z"/>
  <path class="st0" d="M65.15,95.86c-1.57,0-2.84-1.27-2.84-2.84v-2.41c0-1.57,1.27-2.84,2.84-2.84s2.84,1.27,2.84,2.84c0,.56.06,1.12.17,1.67.17.92-.13,1.87-.8,2.53l-.23.23c-.53.53-1.24.82-1.99.83Z"/>
  <path class="st0" d="M140.25,129.85c-.76,0-1.48-.29-2.01-.82l-6.7-6.7h0c-1.1-1.11-1.1-2.9,0-4l.46-.46c.44-.45,1.03-.74,1.65-.83l5.68-.76c0-1.57,1.27-2.84,2.84-2.84h8.92c1.11.05,2.09.74,2.51,1.78.42,1.03.19,2.22-.58,3.02l-10.74,10.79c-.53.53-1.26.83-2.01.82ZM139.34,122.07l.91.94,1.16-1.16-2.07.23Z"/>
  <path class="st0" d="M77,105.26c-3.89,0-7.63-1.55-10.38-4.3-2.75-2.75-4.3-6.49-4.3-10.38v-7.9c-.18-4,1.29-7.9,4.06-10.8,2.77-2.89,6.6-4.53,10.61-4.53s7.84,1.64,10.61,4.53c2.77,2.89,4.24,6.8,4.06,10.8v7.92c0,3.88-1.56,7.61-4.3,10.35s-6.47,4.29-10.36,4.3ZM77,73.68c-2.39,0-4.68.95-6.37,2.64-1.69,1.69-2.64,3.98-2.64,6.37v7.92c-.14,2.47.75,4.89,2.45,6.69,1.7,1.8,4.07,2.82,6.54,2.82s4.84-1.02,6.54-2.82c1.7-1.8,2.58-4.22,2.44-6.69v-7.92c0-2.39-.94-4.67-2.62-6.36-1.68-1.69-3.97-2.64-6.35-2.65Z"/>
  <path class="st0" d="M91.96,96.18h-3.15c-1.57,0-2.84-1.27-2.84-2.84v-8.52c0-1.57,1.27-2.84,2.84-2.84h3.15c2.54,0,4.88,1.35,6.15,3.55,1.27,2.2,1.27,4.9,0,7.1-1.27,2.2-3.61,3.55-6.15,3.55ZM91.62,90.49h.34c.79,0,1.42-.64,1.42-1.42s-.64-1.42-1.42-1.42h-.31v2.84h-.03Z"/>
  <path class="st0" d="M65.15,96.17h-3.21c-2.54,0-4.88-1.35-6.15-3.55-1.27-2.2-1.27-4.9,0-7.1,1.27-2.2,3.61-3.55,6.15-3.55h3.21c.75,0,1.48.3,2.01.84.53.53.83,1.25.83,2.01v8.52c0,1.56-1.27,2.84-2.84,2.84ZM61.97,87.65h0c-.78,0-1.42.64-1.42,1.42s.64,1.42,1.42,1.42h.37v-2.84h-.4.03Z"/>
  <path class="st0" d="M100.86,154.97h-41.72c-1.57,0-2.84-1.27-2.84-2.84v-28.2c0-1.57,1.27-2.84,2.84-2.84h.43c1.44,0,2.61-1.17,2.61-2.61v-14.97c0-1.57,1.27-2.84,2.84-2.84h29.99c.75,0,1.48.3,2.01.84.53.53.83,1.25.83,2.01v15.03c.03,1.43,1.21,2.57,2.64,2.55h.42c.76,0,1.48.3,2.01.83.53.53.83,1.26.83,2.01v28.17c0,.77-.3,1.51-.84,2.05-.55.54-1.29.84-2.05.82ZM61.98,149.29h36.04v-22.72c-1.69-.53-3.18-1.57-4.23-3-1.05-1.43-1.62-3.15-1.62-4.93v-12.3h-24.31v12.19c0,1.77-.57,3.49-1.62,4.92-1.05,1.43-2.54,2.48-4.23,3v22.72l-.03.11Z"/>
  <path class="st0" d="M100.85,126.76h-.37c-2.2,0-4.31-.87-5.86-2.43-1.56-1.56-2.43-3.67-2.43-5.87v-14.97c0-1.57,1.27-2.84,2.84-2.84h47.03c.76,0,1.48.3,2.01.83.53.53.83,1.25.83,2.01v15.39c0,1.44-1.06,2.67-2.5,2.84l-41.18,5.02h-.37ZM97.85,106.29v12.24c.03,1.43,1.21,2.58,2.64,2.56h.23l38.54-4.77v-9.97h-41.41v-.06Z"/>
  <path class="st0" d="M154.19,119.12h-12.12c-1.57,0-2.84-1.27-2.84-2.84v-12.78c0-1.57,1.27-2.84,2.84-2.84h12.12c1.86,0,3.65.76,4.97,2.07,1.32,1.32,2.07,3.11,2.07,4.98v4.34c0,1.87-.74,3.67-2.06,4.99-1.32,1.33-3.12,2.07-4.98,2.08ZM144.91,113.44h9.29c.36,0,.71-.14.96-.4.26-.26.4-.61.4-.96v-4.37c0-.36-.15-.71-.4-.97-.26-.25-.6-.4-.96-.4h-9.29v7.1Z"/>
  <path class="st0" d="M63.57,106.34h-13.92c-1.57,0-2.84-1.27-2.84-2.84s1.27-2.84,2.84-2.84h13.92c1.57,0,2.84,1.27,2.84,2.84s-1.27,2.84-2.84,2.84"/>
  <path class="st0" d="M100.85,142.72h-41.72c-1.57,0-2.84-1.27-2.84-2.84v-8.52c0-1.57,1.27-2.84,2.84-2.84h41.72c.76,0,1.48.3,2.01.83.53.53.83,1.25.83,2.01v8.52c0,.76-.3,1.48-.83,2.01s-1.25.83-2.01.83M61.98,137.04h36.04v-2.84h-36.04v2.84Z"/>
  <path class="st0" d="M80.01,180.73h-18.35c-1.57,0-2.84-1.27-2.84-2.84v-25.76c0-1.57,1.27-2.84,2.84-2.84h18.35c.76,0,1.48.3,2.01.83.53.53.83,1.25.83,2.01v25.76c0,.75-.3,1.48-.83,2.01-.53.53-1.25.84-2.01.84M64.5,175.05h12.67v-20.08h-12.67v20.08Z"/>
  <path class="st0" d="M98.36,180.72h-18.35c-1.57,0-2.84-1.27-2.84-2.84v-25.76c0-1.57,1.27-2.84,2.84-2.84h18.35c.75,0,1.48.3,2.01.84.53.53.84,1.25.84,2.01v25.76c0,.76-.3,1.48-.84,2.01-.53.53-1.25.83-2.01.83M82.85,175.04h12.67v-20.08h-12.67v20.08Z"/>
  <path class="st0" d="M160.59,109.5l-3.39-3.5,28.65-27.72c.39-.35,1.31-1.39,1.35-2.34.01-.27-.04-.69-.58-1.28-.9-.97-1.57-.99-1.79-.99h-.05c-1,0-2.01.77-2.33,1.07l-30.52,29.81-3.4-3.49,30.51-29.8c.23-.24,2.58-2.46,5.85-2.47,1.36.02,3.39.49,5.31,2.56,1.31,1.42,1.95,3.09,1.86,4.85-.16,3.15-2.63,5.41-2.91,5.66l-28.56,27.63Z"/>
  <path class="st0" d="M86.35,73.74l-3.38-3.51,25.47-24.53c.39-.35,1.31-1.39,1.35-2.34.01-.27-.04-.69-.57-1.28-.9-.97-1.57-.99-1.79-1h-.05c-1,0-2.01.77-2.32,1.07l-30.52,29.81-3.4-3.48,30.5-29.8c.23-.23,2.77-2.47,5.86-2.47,1.36.02,3.38.49,5.3,2.56,1.31,1.42,1.95,3.1,1.86,4.85-.17,3.15-2.63,5.41-2.92,5.66l-25.38,24.46Z"/>
</svg>