<?xml version="1.0" encoding="UTF-8"?>
<svg id="Capa_1" xmlns="http://www.w3.org/2000/svg" version="1.1" viewBox="0 0 221.94 216.95">
  <!-- Generator: Adobe Illustrator 29.4.0, SVG Export Plug-In . SVG Version: 2.1.0 Build 152)  -->
  <defs>
    <style>
      .st0 {
        fill: #e42529;
      }
    </style>
  </defs>
  <path class="st0" d="M55.89,69.73v-.6c0-1.45-1.17-2.62-2.62-2.62h-10.49c-1.45,0-2.63,1.18-2.63,2.62v78.69c0,1.45,1.17,2.63,2.63,2.63h136.4c1.45,0,2.62-1.18,2.62-2.63v-78.69c0-1.45-1.17-2.62-2.62-2.62h-10.49c-1.45,0-2.63,1.18-2.63,2.62v.6l.06,2.06-6.9-.03H55.89v-2.02ZM45.39,71.75h5.25v73.45h-5.25v-73.45ZM55.89,77h110.17v68.2H55.89v-68.2ZM171.3,71.75h5.25v73.45h-5.25v-73.45Z"/>
  <path class="st0" d="M74.25,82.24h-10.49c-1.45,0-2.62,1.18-2.62,2.63v52.46c0,1.45,1.17,2.62,2.62,2.62h10.49c1.45,0,2.62-1.18,2.62-2.62v-52.46c0-1.45-1.17-2.63-2.62-2.63M71.63,134.7h-5.25v-47.22h5.25v47.22Z"/>
  <path class="st0" d="M95.24,82.24h-10.49c-1.45,0-2.63,1.18-2.63,2.63v52.46c0,1.45,1.17,2.62,2.63,2.62h10.49c1.45,0,2.62-1.18,2.62-2.62v-52.46c0-1.45-1.18-2.63-2.62-2.63M92.61,134.7h-5.25v-47.22h5.25v47.22Z"/>
  <path class="st0" d="M116.22,82.24h-10.49c-1.45,0-2.62,1.18-2.62,2.63v52.46c0,1.45,1.18,2.62,2.62,2.62h10.49c1.45,0,2.62-1.18,2.62-2.62v-52.46c0-1.45-1.17-2.63-2.62-2.63M113.6,134.7h-5.25v-47.22h5.25v47.22Z"/>
  <path class="st0" d="M137.21,82.24h-10.49c-1.45,0-2.63,1.18-2.63,2.63v52.46c0,1.45,1.17,2.62,2.63,2.62h10.49c1.45,0,2.62-1.18,2.62-2.62v-52.46c0-1.45-1.17-2.63-2.62-2.63M134.58,134.7h-5.25v-47.22h5.25v47.22Z"/>
  <path class="st0" d="M158.19,82.24h-10.49c-1.45,0-2.62,1.18-2.62,2.63v52.46c0,1.45,1.17,2.62,2.62,2.62h10.49c1.45,0,2.63-1.18,2.63-2.62v-52.46c0-1.45-1.17-2.63-2.63-2.63M155.57,134.7h-5.25v-47.22h5.25v47.22Z"/>
</svg>