<?xml version="1.0" encoding="UTF-8"?>
<svg id="Capa_1" xmlns="http://www.w3.org/2000/svg" version="1.1" viewBox="0 0 221.94 216.95">
  <!-- Generator: Adobe Illustrator 29.4.0, SVG Export Plug-In . SVG Version: 2.1.0 Build 152)  -->
  <defs>
    <style>
      .st0 {
        fill: #e42529;
      }
    </style>
  </defs>
  <path class="st0" d="M178.89,137.86c-.07,0-.14,0-.21,0-3.49-.27-85.77-6.83-112.35-27.25-7.07-5.43-10.38-11.07-9.81-16.76,1.16-11.7,18.02-19.98,32.88-27.29,3.29-1.62,6.43-3.16,9.16-4.63,9.11-4.93,10.41-6.77,11.8-8.73,1.65-2.34,3.53-4.98,13.4-10.77,19.43-11.39,53.24-11.18,54.74-11.18,1.52.02,2.75,1.26,2.73,2.79-.01,1.51-1.25,2.73-2.76,2.73h-.23c-2.85,0-34.33.25-51.69,10.42-8.84,5.19-10.29,7.23-11.68,9.2-2.08,2.93-4.15,5.24-13.68,10.39-2.78,1.5-5.98,3.08-9.35,4.73-12.9,6.34-28.96,14.23-29.82,22.88-.36,3.66,2.22,7.64,7.68,11.84,25.3,19.43,108.58,26.06,109.42,26.13,1.52.11,2.65,1.44,2.54,2.96-.11,1.45-1.32,2.55-2.75,2.55"/>
  <path class="st0" d="M172.79,58.69h-17.58c-1.42,0-2.57-1.15-2.57-2.57s1.15-2.58,2.57-2.58h17.58c1.42,0,2.57,1.15,2.57,2.58s-1.15,2.57-2.57,2.57"/>
  <path class="st0" d="M182.16,58.67c-.34,0-.69-.04-.99-.17-.34-.13-.6-.34-.86-.56-.47-.51-.73-1.16-.73-1.85,0-.64.26-1.33.73-1.8.73-.73,1.85-.94,2.83-.56.3.13.56.3.82.56.47.47.77,1.16.77,1.8,0,.69-.3,1.33-.77,1.85-.26.21-.52.43-.82.56-.34.13-.64.17-.98.17"/>
  <path class="st0" d="M49.12,174.21c-.34,0-.69-.04-.99-.17-.34-.13-.6-.34-.86-.56-.47-.51-.73-1.16-.73-1.85,0-.64.26-1.33.73-1.8.73-.73,1.85-.94,2.83-.56.3.13.56.3.82.56.47.47.77,1.16.77,1.8,0,.69-.3,1.33-.77,1.85-.26.21-.52.43-.82.56-.34.13-.64.17-.98.17"/>
  <path class="st0" d="M180.59,104.68c-4.6,0-8.34-3.74-8.34-8.34v-15.81c0-4.6,3.74-8.34,8.34-8.34,1.34,0,2.44,1.09,2.44,2.44s-1.09,2.44-2.44,2.44c-1.91,0-3.47,1.56-3.47,3.47v15.81c0,1.91,1.56,3.47,3.47,3.47,1.34,0,2.44,1.09,2.44,2.44s-1.09,2.44-2.44,2.44"/>
  <path class="st0" d="M164.4,143.19h-7.85c-5.55,0-10.08-3.74-10.08-8.34,0-1.34,1.09-2.44,2.44-2.44s2.44,1.09,2.44,2.44c0,1.88,2.38,3.47,5.21,3.47h7.85c2.82,0,5.21-1.59,5.21-3.47,0-1.34,1.09-2.44,2.44-2.44s2.44,1.09,2.44,2.44c0,4.6-4.52,8.34-10.08,8.34"/>
  <path class="st0" d="M140.33,47.84h-21.36c-.28.89-.53,1.78-.76,2.68h22.12c1.2,0,2.18.98,2.18,2.18s-.98,2.18-2.18,2.18h-26.51c-.08.88-.1,1.77-.06,2.68h26.57c2.68,0,4.86-2.18,4.86-4.86s-2.18-4.86-4.86-4.86"/>
  <path class="st0" d="M140.33,58.19h-27.17l-.03-.6c-.04-.92-.02-1.85.07-2.77l.05-.57h27.09c.85,0,1.55-.69,1.55-1.55s-.69-1.55-1.55-1.55h-22.93l.2-.79c.23-.9.49-1.81.77-2.71l.14-.45h21.83c3.03,0,5.49,2.46,5.49,5.49s-2.46,5.49-5.49,5.49M114.37,56.93h25.96c2.33,0,4.23-1.9,4.23-4.23s-1.9-4.23-4.23-4.23h-20.9c-.14.47-.28.95-.41,1.42h21.3c1.55,0,2.81,1.26,2.81,2.81s-1.26,2.81-2.81,2.81h-25.93c-.03.47-.04.95-.03,1.42"/>
  <path class="st0" d="M126.79,57.55c-.74,0-1.34-.6-1.34-1.34v-7.04c0-.74.6-1.34,1.34-1.34s1.34.6,1.34,1.34v7.04c0,.74-.6,1.34-1.34,1.34"/>
  <path class="st0" d="M126.8,58.19c-1.09,0-1.97-.88-1.97-1.97v-7.04c0-1.09.88-1.97,1.97-1.97s1.97.88,1.97,1.97v7.04c0,1.08-.88,1.97-1.97,1.97M126.8,48.47c-.39,0-.71.32-.71.71v7.04c0,.39.32.71.71.71s.71-.32.71-.71v-7.04c0-.39-.32-.71-.71-.71"/>
  <path class="st0" d="M135.65,57.55c-.74,0-1.34-.6-1.34-1.34v-7.04c0-.74.6-1.34,1.34-1.34s1.34.6,1.34,1.34v7.04c0,.74-.6,1.34-1.34,1.34"/>
  <path class="st0" d="M135.65,58.19c-1.09,0-1.97-.88-1.97-1.97v-7.04c0-1.09.88-1.97,1.97-1.97s1.97.88,1.97,1.97v7.04c0,1.08-.88,1.97-1.97,1.97M135.65,48.47c-.39,0-.71.32-.71.71v7.04c0,.39.32.71.71.71s.71-.32.71-.71v-7.04c0-.39-.32-.71-.71-.71"/>
  <path class="st0" d="M103.94,94.08c1.39,0,2.53-1.13,2.53-2.53v-6.23c0-1.4-1.13-2.53-2.53-2.53s-2.53,1.13-2.53,2.53v6.23c0,1.4,1.13,2.53,2.53,2.53"/>
  <path class="st0" d="M117.84,94.08c1.39,0,2.53-1.13,2.53-2.53v-6.23c0-1.4-1.13-2.53-2.53-2.53s-2.53,1.13-2.53,2.53v6.23c0,1.4,1.13,2.53,2.53,2.53"/>
  <path class="st0" d="M145.65,94.08c1.39,0,2.53-1.13,2.53-2.53v-6.23c0-1.4-1.13-2.53-2.53-2.53s-2.53,1.13-2.53,2.53v6.23c0,1.4,1.13,2.53,2.53,2.53"/>
  <path class="st0" d="M131.74,94.08c1.39,0,2.53-1.13,2.53-2.53v-6.23c0-1.4-1.13-2.53-2.53-2.53s-2.53,1.13-2.53,2.53v6.23c0,1.4,1.13,2.53,2.53,2.53"/>
  <path class="st0" d="M159.55,94.08c1.39,0,2.53-1.13,2.53-2.53v-6.23c0-1.4-1.13-2.53-2.53-2.53s-2.53,1.13-2.53,2.53v6.23c0,1.4,1.13,2.53,2.53,2.53"/>
  <path class="st0" d="M170.85,116.65h-21.95c-1.34,0-2.44-1.09-2.44-2.44s1.09-2.44,2.44-2.44h21.95c1.34,0,2.44,1.09,2.44,2.44s-1.09,2.44-2.44,2.44"/>
  <path class="st0" d="M123.89,166.15h-41.41c-1.03,0-1.87-.83-1.87-1.87s.84-1.87,1.87-1.87h41.41c1.03,0,1.87.83,1.87,1.87s-.84,1.87-1.87,1.87"/>
  <path class="st0" d="M166.12,185.72c-7.43,0-13.48-6.05-13.48-13.48s6.04-13.48,13.48-13.48,13.48,6.04,13.48,13.48-6.04,13.48-13.48,13.48M166.12,162.55c-5.34,0-9.69,4.35-9.69,9.69s4.35,9.69,9.69,9.69,9.69-4.35,9.69-9.69-4.35-9.69-9.69-9.69"/>
  <path class="st0" d="M166.12,179.04c-3.75,0-6.8-3.05-6.8-6.8s3.05-6.8,6.8-6.8,6.8,3.05,6.8,6.8-3.05,6.8-6.8,6.8M166.12,169.22c-1.66,0-3.01,1.35-3.01,3.01s1.35,3.01,3.01,3.01,3.01-1.35,3.01-3.01-1.35-3.01-3.01-3.01"/>
  <path class="st0" d="M104.61,185.72c-5.91,0-10.71-4.81-10.71-10.72s4.8-10.72,10.71-10.72,10.71,4.81,10.71,10.72-4.8,10.72-10.71,10.72M104.61,167.3c-4.25,0-7.71,3.45-7.71,7.7s3.46,7.71,7.71,7.71,7.7-3.46,7.7-7.71-3.45-7.7-7.7-7.7"/>
  <path class="st0" d="M104.61,180.41c-2.98,0-5.41-2.43-5.41-5.41s2.42-5.41,5.41-5.41,5.41,2.43,5.41,5.41-2.42,5.41-5.41,5.41M104.61,172.61c-1.32,0-2.4,1.07-2.4,2.39s1.08,2.4,2.4,2.4,2.4-1.08,2.4-2.4-1.08-2.39-2.4-2.39"/>
  <path class="st0" d="M69.46,185.72c-5.91,0-10.71-4.81-10.71-10.72s4.8-10.72,10.71-10.72,10.71,4.81,10.71,10.72-4.8,10.72-10.71,10.72M69.46,167.3c-4.25,0-7.7,3.45-7.7,7.7s3.45,7.71,7.7,7.71,7.71-3.46,7.71-7.71-3.46-7.7-7.71-7.7"/>
  <path class="st0" d="M69.46,180.41c-2.98,0-5.41-2.43-5.41-5.41s2.42-5.41,5.41-5.41,5.41,2.43,5.41,5.41-2.42,5.41-5.41,5.41M69.46,172.61c-1.32,0-2.4,1.07-2.4,2.39s1.08,2.4,2.4,2.4,2.4-1.08,2.4-2.4-1.08-2.39-2.4-2.39"/>
  <path class="st0" d="M166.12,160.93c-1.34,0-2.44-1.09-2.44-2.44v-17.9c0-1.34,1.09-2.44,2.44-2.44s2.44,1.09,2.44,2.44v17.9c0,1.34-1.09,2.44-2.44,2.44"/>
  <path class="st0" d="M154.45,174.35c-.77,0-1.51-.42-1.88-1.15l-5.54-10.85c-.49-.95-.18-2.12.71-2.72l12.22-8.17-8.22-9.58c-.76-.88-.66-2.21.23-2.98.88-.76,2.21-.66,2.98.23l9.77,11.38c.39.46.57,1.06.49,1.66-.08.6-.41,1.13-.92,1.47l-12.64,8.45,4.69,9.18c.53,1.03.12,2.31-.92,2.84-.31.16-.64.23-.96.23"/>
  <path class="st0" d="M173.74,154.88h-5.78c-1.34,0-2.44-1.09-2.44-2.44s1.09-2.44,2.44-2.44h5.78c1.34,0,2.44,1.09,2.44,2.44s-1.09,2.44-2.44,2.44"/>
  <rect class="st0" x="77.16" y="169.84" width="19.74" height="3.61"/>
  <path class="st0" d="M53.29,180.79h-12.18c-2.14,0-3.9-1.75-3.9-3.9v-13.68c0-1.81,1.29-3.41,3.05-3.8l5.21-1.15v-.92c0-1.18.47-2.29,1.32-3.12.85-.83,2-1.22,3.16-1.24l72.67,2.24c3.27,0,5.98,2.72,5.98,6.05v7.73c0,2.62-2.13,4.74-4.75,4.74h-10.75v-4.22h10.75c.29,0,.52-.23.52-.52v-7.73c0-1.01-.82-1.83-1.83-1.83l-72.72-2.24-.13,4.44-8.26,1.83v13.09h11.53l.09-3.25c.06-2.13,1.77-3.79,3.89-3.79h4.81v4.22h-4.49l-.09,3.25c-.05,2.13-1.76,3.79-3.89,3.79"/>
  <path class="st0" d="M137.62,176.91c-.92,0-1.67-.75-1.67-1.67v-4.57h-9.46c-.92,0-1.67-.74-1.67-1.67s.75-1.66,1.67-1.66h9.46v-1.19c0-.92.75-1.67,1.67-1.67h13.14c.92,0,1.66.75,1.66,1.67s-.74,1.66-1.66,1.66h-11.48v7.43c0,.92-.75,1.67-1.67,1.67"/>
</svg>