<?xml version="1.0" encoding="UTF-8"?>
<svg id="Capa_1" xmlns="http://www.w3.org/2000/svg" version="1.1" viewBox="0 0 221.94 216.95">
  <!-- Generator: Adobe Illustrator 29.4.0, SVG Export Plug-In . SVG Version: 2.1.0 Build 152)  -->
  <defs>
    <style>
      .st0 {
        fill: #e42529;
      }
    </style>
  </defs>
  <path class="st0" d="M62.2,37.02h-3.58c-1.42,0-2.58,1.15-2.58,2.58v1.65c-.77.44-1.29,1.27-1.29,2.22v1.29c0,.95.52,1.77,1.29,2.22v29.09c-.77.45-1.29,1.27-1.29,2.22v1.29c0,1.42,1.15,2.58,2.58,2.58h49.41c1.42,0,2.58-1.15,2.58-2.58v-1.29c0-.95-.52-1.77-1.29-2.22v-29.09c.77-.45,1.29-1.27,1.29-2.22v-1.29c0-.95-.52-1.78-1.29-2.22v-1.65c0-1.42-1.15-2.58-2.58-2.58h-3.59s-2.67-.18-2.67,1.6c-.13.3-.2.63-.2.98v1.29h-33.93v-1.29c0-.35-.07-.68-.19-.98,0,0,.1-1.6-2.67-1.6M58.62,47.34h46.83v28.38h-46.83v-28.38ZM57.33,43.47h49.41v1.29h-49.41v-1.29ZM105.45,40.89h-3.87v-1.29h3.87v1.29ZM58.62,39.6h3.87v1.29h-3.87v-1.29ZM106.74,79.59h-49.41v-1.29h49.41v1.29Z"/>
  <path class="st0" d="M67.84,72.96c.71,0,1.29-.58,1.29-1.29v-21.05c0-.71-.58-1.29-1.29-1.29s-1.29.58-1.29,1.29v21.05c0,.71.58,1.29,1.29,1.29"/>
  <path class="st0" d="M74.94,72.96c.71,0,1.29-.58,1.29-1.29v-21.05c0-.71-.58-1.29-1.29-1.29s-1.29.58-1.29,1.29v21.05c0,.71.58,1.29,1.29,1.29"/>
  <path class="st0" d="M89.13,72.96c.71,0,1.29-.58,1.29-1.29v-21.05c0-.71-.58-1.29-1.29-1.29s-1.29.58-1.29,1.29v21.05c0,.71.58,1.29,1.29,1.29"/>
  <path class="st0" d="M82.03,72.96c.71,0,1.29-.58,1.29-1.29v-21.05c0-.71-.58-1.29-1.29-1.29s-1.29.58-1.29,1.29v21.05c0,.71.58,1.29,1.29,1.29"/>
  <path class="st0" d="M96.22,72.96c.71,0,1.29-.58,1.29-1.29v-21.05c0-.71-.58-1.29-1.29-1.29s-1.29.58-1.29,1.29v21.05c0,.71.58,1.29,1.29,1.29"/>
  <path class="st0" d="M62.2,85.9h-3.58c-1.42,0-2.58,1.15-2.58,2.58v1.65c-.77.44-1.29,1.27-1.29,2.22v1.29c0,.95.52,1.77,1.29,2.22v29.09c-.77.44-1.29,1.27-1.29,2.22v1.29c0,1.42,1.15,2.58,2.58,2.58h49.41c1.42,0,2.58-1.15,2.58-2.58v-1.29c0-.95-.52-1.78-1.29-2.22v-29.1c.77-.44,1.29-1.27,1.29-2.22v-1.29c0-.95-.52-1.78-1.29-2.22h0s0-1.65,0-1.65c0-1.42-1.15-2.58-2.58-2.58h-3.59s-2.67-.18-2.67,1.6c-.13.3-.2.63-.2.98v1.29h-33.93v-1.29c0-.35-.07-.68-.19-.98,0,0,.1-1.6-2.67-1.6M58.62,96.22h46.83v28.38h-46.83v-28.38ZM57.33,92.35h49.41v1.29h-49.41v-1.29ZM105.45,89.77h-3.87v-1.29h3.87v1.29ZM58.62,88.48h3.87v1.29h-3.87v-1.29ZM106.74,128.47h-49.41v-1.29h49.41v1.29Z"/>
  <path class="st0" d="M67.84,121.84c.71,0,1.29-.58,1.29-1.29v-21.05c0-.71-.58-1.29-1.29-1.29s-1.29.58-1.29,1.29v21.05c0,.71.58,1.29,1.29,1.29"/>
  <path class="st0" d="M74.94,121.84c.71,0,1.29-.58,1.29-1.29v-21.05c0-.71-.58-1.29-1.29-1.29s-1.29.58-1.29,1.29v21.05c0,.71.58,1.29,1.29,1.29"/>
  <path class="st0" d="M89.13,121.84c.71,0,1.29-.58,1.29-1.29v-21.05c0-.71-.58-1.29-1.29-1.29s-1.29.58-1.29,1.29v21.05c0,.71.58,1.29,1.29,1.29"/>
  <path class="st0" d="M82.03,121.84c.71,0,1.29-.58,1.29-1.29v-21.05c0-.71-.58-1.29-1.29-1.29s-1.29.58-1.29,1.29v21.05c0,.71.58,1.29,1.29,1.29"/>
  <path class="st0" d="M96.22,121.84c.71,0,1.29-.58,1.29-1.29v-21.05c0-.71-.58-1.29-1.29-1.29s-1.29.58-1.29,1.29v21.05c0,.71.58,1.29,1.29,1.29"/>
  <path class="st0" d="M120.08,85.9h-3.58c-1.42,0-2.58,1.15-2.58,2.58v1.65c-.77.44-1.29,1.27-1.29,2.22v1.29c0,.95.52,1.77,1.29,2.22v29.09c-.77.44-1.29,1.27-1.29,2.22v1.29c0,1.42,1.16,2.58,2.58,2.58h49.41c1.42,0,2.58-1.15,2.58-2.58v-1.29c0-.95-.52-1.78-1.29-2.22v-29.1c.77-.44,1.29-1.27,1.29-2.22v-1.29c0-.95-.52-1.78-1.29-2.22h0s0-1.65,0-1.65c0-1.42-1.16-2.58-2.58-2.58h-3.58s-2.67-.18-2.67,1.6c-.13.3-.2.63-.2.98v1.29h-33.93v-1.29c0-.35-.07-.68-.2-.98,0,0,.1-1.6-2.67-1.6M116.49,96.22h46.83v28.38h-46.83v-28.38ZM115.2,92.35h49.41v1.29h-49.41v-1.29ZM163.32,89.77h-3.87v-1.29h3.87v1.29ZM116.49,88.48h3.87v1.29h-3.87v-1.29ZM164.61,128.47h-49.41v-1.29h49.41v1.29Z"/>
  <path class="st0" d="M125.72,121.84c.71,0,1.29-.58,1.29-1.29v-21.05c0-.71-.58-1.29-1.29-1.29s-1.29.58-1.29,1.29v21.05c0,.71.58,1.29,1.29,1.29"/>
  <path class="st0" d="M132.81,121.84c.71,0,1.29-.58,1.29-1.29v-21.05c0-.71-.58-1.29-1.29-1.29s-1.29.58-1.29,1.29v21.05c0,.71.58,1.29,1.29,1.29"/>
  <path class="st0" d="M147,121.84c.71,0,1.29-.58,1.29-1.29v-21.05c0-.71-.58-1.29-1.29-1.29s-1.29.58-1.29,1.29v21.05c0,.71.58,1.29,1.29,1.29"/>
  <path class="st0" d="M139.91,121.84c.71,0,1.29-.58,1.29-1.29v-21.05c0-.71-.58-1.29-1.29-1.29s-1.29.58-1.29,1.29v21.05c0,.71.58,1.29,1.29,1.29"/>
  <path class="st0" d="M154.1,121.84c.71,0,1.29-.58,1.29-1.29v-21.05c0-.71-.58-1.29-1.29-1.29s-1.29.58-1.29,1.29v21.05c0,.71.58,1.29,1.29,1.29"/>
  <path class="st0" d="M62.2,134.78h-3.58c-1.42,0-2.58,1.15-2.58,2.58v1.65c-.77.44-1.29,1.27-1.29,2.22v1.29c0,.95.52,1.78,1.29,2.22v29.09c-.77.44-1.29,1.27-1.29,2.22v1.29c0,1.42,1.15,2.58,2.58,2.58h49.41c1.42,0,2.58-1.15,2.58-2.58v-1.29c0-.95-.52-1.78-1.29-2.22v-29.1c.77-.44,1.29-1.27,1.29-2.22v-1.29c0-.95-.52-1.77-1.29-2.22h0s0-1.65,0-1.65c0-1.42-1.15-2.58-2.58-2.58h-3.59s-2.67-.18-2.67,1.6c-.13.3-.2.63-.2.98v1.29h-33.93v-1.29c0-.35-.07-.68-.19-.98,0,0,.1-1.6-2.67-1.6M58.62,145.1h46.83v28.38h-46.83v-28.38ZM57.33,141.23h49.41v1.29h-49.41v-1.29ZM105.45,138.65h-3.87v-1.29h3.87v1.29ZM58.62,137.36h3.87v1.29h-3.87v-1.29ZM106.74,177.35h-49.41v-1.29h49.41v1.29Z"/>
  <path class="st0" d="M67.84,170.71c.71,0,1.29-.58,1.29-1.29v-21.05c0-.71-.58-1.29-1.29-1.29s-1.29.58-1.29,1.29v21.05c0,.71.58,1.29,1.29,1.29"/>
  <path class="st0" d="M74.94,170.71c.71,0,1.29-.58,1.29-1.29v-21.05c0-.71-.58-1.29-1.29-1.29s-1.29.58-1.29,1.29v21.05c0,.71.58,1.29,1.29,1.29"/>
  <path class="st0" d="M89.13,170.71c.71,0,1.29-.58,1.29-1.29v-21.05c0-.71-.58-1.29-1.29-1.29s-1.29.58-1.29,1.29v21.05c0,.71.58,1.29,1.29,1.29"/>
  <path class="st0" d="M82.03,170.71c.71,0,1.29-.58,1.29-1.29v-21.05c0-.71-.58-1.29-1.29-1.29s-1.29.58-1.29,1.29v21.05c0,.71.58,1.29,1.29,1.29"/>
  <path class="st0" d="M96.22,170.71c.71,0,1.29-.58,1.29-1.29v-21.05c0-.71-.58-1.29-1.29-1.29s-1.29.58-1.29,1.29v21.05c0,.71.58,1.29,1.29,1.29"/>
  <path class="st0" d="M120.08,134.78h-3.58c-1.42,0-2.58,1.15-2.58,2.58v1.65c-.77.44-1.29,1.27-1.29,2.22v1.29c0,.95.52,1.78,1.29,2.22v29.09c-.77.44-1.29,1.27-1.29,2.22v1.29c0,1.42,1.16,2.58,2.58,2.58h49.41c1.42,0,2.58-1.15,2.58-2.58v-1.29c0-.95-.52-1.78-1.29-2.22v-29.1c.77-.44,1.29-1.27,1.29-2.22v-1.29c0-.95-.52-1.77-1.29-2.22h0s0-1.65,0-1.65c0-1.42-1.16-2.58-2.58-2.58h-3.58s-2.67-.18-2.67,1.6c-.13.3-.2.63-.2.98v1.29h-33.93v-1.29c0-.35-.07-.68-.2-.98,0,0,.1-1.6-2.67-1.6M116.49,145.1h46.83v28.38h-46.83v-28.38ZM115.2,141.23h49.41v1.29h-49.41v-1.29ZM163.32,138.65h-3.87v-1.29h3.87v1.29ZM116.49,137.36h3.87v1.29h-3.87v-1.29ZM164.61,177.35h-49.41v-1.29h49.41v1.29Z"/>
  <path class="st0" d="M125.72,170.71c.71,0,1.29-.58,1.29-1.29v-21.05c0-.71-.58-1.29-1.29-1.29s-1.29.58-1.29,1.29v21.05c0,.71.58,1.29,1.29,1.29"/>
  <path class="st0" d="M132.81,170.71c.71,0,1.29-.58,1.29-1.29v-21.05c0-.71-.58-1.29-1.29-1.29s-1.29.58-1.29,1.29v21.05c0,.71.58,1.29,1.29,1.29"/>
  <path class="st0" d="M147,170.71c.71,0,1.29-.58,1.29-1.29v-21.05c0-.71-.58-1.29-1.29-1.29s-1.29.58-1.29,1.29v21.05c0,.71.58,1.29,1.29,1.29"/>
  <path class="st0" d="M139.91,170.71c.71,0,1.29-.58,1.29-1.29v-21.05c0-.71-.58-1.29-1.29-1.29s-1.29.58-1.29,1.29v21.05c0,.71.58,1.29,1.29,1.29"/>
  <path class="st0" d="M154.1,170.71c.71,0,1.29-.58,1.29-1.29v-21.05c0-.71-.58-1.29-1.29-1.29s-1.29.58-1.29,1.29v21.05c0,.71.58,1.29,1.29,1.29"/>
</svg>