<?xml version="1.0" encoding="UTF-8"?>
<svg id="Capa_1" xmlns="http://www.w3.org/2000/svg" version="1.1" viewBox="0 0 221.94 216.95">
  <!-- Generator: Adobe Illustrator 29.4.0, SVG Export Plug-In . SVG Version: 2.1.0 Build 152)  -->
  <defs>
    <style>
      .st0 {
        fill: #e42529;
      }
    </style>
  </defs>
  <path class="st0" d="M131.67,142.62h54.85c1.11,0,2.02-.9,2.02-2.02v-14.56c0-1.11-.9-2.02-2.02-2.02h-54.85c-1.11,0-2.02.9-2.02,2.02v14.56c0,1.11.9,2.02,2.02,2.02M133.69,128.06h50.81v10.52h-50.81v-10.52Z"/>
  <path class="st0" d="M79.83,160.5v1.77c0,2.94,2.17,6.2,5.3,6.2h8.31c1.69,4.48,6.01,7.69,11.08,7.69s9.39-3.2,11.08-7.69h44.92c1.69,4.48,6.01,7.69,11.07,7.69s9.39-3.2,11.08-7.69h2.81c5.77,0,10.91-5.38,11.01-11.5l.17-10.33h-10.75s-10.14,0-10.14,0h-4.01s-25.63,0-25.63,0h-10.1s-9.89,0-9.89,0v-42.28c.38-.48.54-1.13.36-1.77-.3-1.02-1.36-1.61-2.39-1.32l-16.03,4.64c-9.2,2.67-15.38,10.94-15.38,20.6v7.67l-2.51.62c-5.34,1.31-9.07,5.66-9.07,10.58v11.55s0,.08.01.11c-.63.65-1.29,1.74-1.29,3.45M96.56,126.06l14.22.03c-.32,2.19-1.23,4.73-3.28,5.08l-10.95,1.85v-6.5c0-.15.02-.3.02-.46M122.28,155.61h-9.75c-2.11-1.95-4.92-3.15-8.01-3.15s-5.89,1.19-8,3.14h-11.53s0,0,0,0h0v-10.2c0-3.49,3.08-6.08,6.13-6.83l3.98-.98c.36-.09.67-.3.91-.55l12.15-2.05c4.9-.83,6.64-6.34,6.64-10.81v-1.93l-17.72-.03c1.47-5.99,5.96-10.8,12.08-12.58l13.12-3.8.02,49.78ZM162.88,164.31c0-4.8,3.91-8.71,8.71-8.71s8.71,3.91,8.71,8.71-3.91,8.71-8.71,8.71-8.71-3.91-8.71-8.71M115.31,159.47l37.45.02c0-2.13-1.73-3.86-3.86-3.86l-22.78-.02v-5.12h66.6l-.11,6.41c-.07,4.03-3.48,7.71-7.16,7.71h-2.05c0-.1.02-.2.02-.3,0-6.53-5.32-11.85-11.85-11.85s-11.85,5.32-11.85,11.85c0,.1.01.2.02.3h-43.42c0-.1.02-.2.02-.3,0-1.73-.38-3.36-1.05-4.84M95.81,164.31c0-4.8,3.91-8.71,8.71-8.71s8.71,3.91,8.71,8.71-3.91,8.71-8.71,8.71-8.71-3.91-8.71-8.71M83.69,160.5c0-.26.04-.61.23-.78.19-.17.63-.26,1.06-.27h8.74c-.67,1.49-1.05,3.13-1.05,4.86,0,.1.01.2.02.3h-7.56c-.6,0-1.44-1.18-1.44-2.34v-1.77Z"/>
  <path class="st0" d="M167.28,160c-1.14,1.14-1.78,2.69-1.78,4.31s.64,3.17,1.78,4.31c1.14,1.14,2.69,1.79,4.31,1.79s3.17-.64,4.31-1.79c1.14-1.14,1.79-2.69,1.79-4.31s-.64-3.17-1.79-4.31c-1.14-1.14-2.69-1.79-4.31-1.79s-3.17.64-4.31,1.79M168.54,164.31c0-.81.32-1.58.89-2.15.57-.57,1.35-.89,2.15-.89s1.58.32,2.15.89c.57.57.89,1.35.89,2.15s-.32,1.58-.89,2.15c-.57.57-1.35.89-2.15.89s-1.58-.32-2.15-.89c-.57-.57-.89-1.35-.89-2.15"/>
  <path class="st0" d="M100.21,160c-1.14,1.14-1.78,2.69-1.78,4.31s.64,3.17,1.78,4.31c1.14,1.14,2.69,1.79,4.31,1.79s3.17-.64,4.31-1.79c1.15-1.14,1.79-2.69,1.79-4.31s-.64-3.17-1.79-4.31c-1.14-1.14-2.69-1.79-4.31-1.79s-3.17.64-4.31,1.79M101.47,164.31c0-.81.32-1.58.89-2.15.57-.57,1.35-.89,2.15-.89s1.58.32,2.15.89c.57.57.89,1.35.89,2.15s-.32,1.58-.89,2.15c-.57.57-1.35.89-2.15.89s-1.58-.32-2.15-.89c-.57-.57-.89-1.35-.89-2.15"/>
  <path class="st0" d="M77.81,177.14h53.41c1.01,0,1.83-.82,1.83-1.83s-.82-1.83-1.83-1.83h-53.41c-1.01,0-1.83.82-1.83,1.83s.82,1.83,1.83,1.83"/>
  <path class="st0" d="M142.13,177.14h53.41c1.01,0,1.83-.82,1.83-1.83s-.82-1.83-1.83-1.83h-53.41c-1.01,0-1.83.82-1.83,1.83s.82,1.83,1.83,1.83"/>
  <path class="st0" d="M155.26,108.11h-6.59c-2.74,0-4.98,2.23-4.98,4.98v2.55c0,.95.78,1.73,1.73,1.73h9.84c.95,0,1.73-.78,1.73-1.73v-5.8c0-.95-.77-1.73-1.73-1.73ZM153.53,113.92h-6.38v-.83c0-.84.68-1.52,1.52-1.52h4.86v2.35Z"/>
  <path class="st0" d="M145.54,124.55l1.18-2.41,23.25-.07,1.66,2.47h3.92l-1.6-2.37h4.14s.02,0,.02,0c.89,0,1.74-.36,2.38-.99.67-.67,1.04-1.56,1.04-2.52l.06-25.24c0-2.12-1.68-3.85-3.74-3.86l-11.84-.03h0c-1.88,0-3.58,1.22-4.24,3.04l-1.2,3.35L55.3,40.43c-.07-.04-.15-.04-.23-.07-.64-.33-1.34-.55-2.11-.55-2.61,0-4.72,2.12-4.72,4.72,0,1.49.74,2.77,1.83,3.64.1.11.17.23.3.31l.88.6v12.37c-2.79.76-4.85,3.29-4.85,6.32,0,3.63,2.95,6.58,6.58,6.58s6.58-2.95,6.58-6.58c0-.95-.77-1.73-1.73-1.73s-1.73.77-1.73,1.73c0,1.73-1.4,3.13-3.13,3.13s-3.13-1.4-3.13-3.13,1.4-3.13,3.13-3.13c.95,0,1.73-.77,1.73-1.73,0-.1-.04-.18-.06-.27.02-.09.06-.17.06-.27v-10.92l85.33,54.08s-.02,0-.02.02c-1.81,1.89-2.81,4.41-2.82,7.1v5.92c-.02,1.93,1.51,3.52,3.4,3.53h3.11s-1.51,2.46-1.51,2.46h3.35ZM52.97,43.26c.7,0,1.28.57,1.28,1.27s-.57,1.28-1.28,1.28-1.28-.57-1.28-1.28.57-1.27,1.28-1.27M55.94,48.11c.81-.67,1.34-1.58,1.56-2.64l101.89,53.73-.89,2.47c-.2.55-.69.92-1.22.92h0l-10.41-.03h-.03c-1.34,0-2.63.29-3.82.83L55.94,48.11ZM140.64,112.65c0-1.79.67-3.47,1.86-4.72,1.17-1.23,2.71-1.9,4.35-1.9h.02l10.41.03h.01c1.98,0,3.77-1.29,4.46-3.21l3.26-9.09c.17-.46.55-.76.99-.76l11.84.03c.14,0,.3.17.3.41l-.03,25.29-37.48-.15v-5.92Z"/>
  <path class="st0" d="M171.68,96.01h-1.94c-2.81,0-5.09,2.28-5.09,5.09v8.28c0,2.81,2.28,5.09,5.09,5.09h1.94c2.81,0,5.09-2.28,5.09-5.09v-8.28c0-2.81-2.28-5.09-5.09-5.09M173.32,109.38c0,.9-.73,1.64-1.63,1.64h-1.94c-.91,0-1.64-.73-1.64-1.64v-8.28c0-.9.73-1.64,1.64-1.64h1.94c.9,0,1.63.74,1.63,1.64v8.28Z"/>
  <path class="st0" d="M80.15,87.01h-4.8c-.66,0-1.2.54-1.2,1.2v.28l-17.46-12.9c1.12-1.34,1.39-3.19.72-4.8-.38-1.31-2.04-2.32-2.04-2.32-.73-.44-1.55-.67-2.4-.67-1.31,0-2.55.54-3.46,1.48,0,0-1.15,1.15-1.27,2.54-.04.26-.07.53-.07.79,0,1.09.39,2.15,1.08,2.99l-17.46,12.9v-.28c0-.66-.54-1.2-1.2-1.2h-4.8c-.66,0-1.2.54-1.2,1.2v36.03c0,.66.54,1.2,1.2,1.2h54.37c.66,0,1.2-.54,1.2-1.2v-36.03c0-.66-.54-1.2-1.2-1.2M29.38,123.04h-2.4v-33.62h2.4v33.62ZM52.96,70.29c1.26,0,2.28,1.02,2.28,2.28s-1.02,2.28-2.28,2.28-2.28-1.02-2.28-2.28,1.02-2.28,2.28-2.28M50.9,77.4s.94.45,2.07.45,2.07-.45,2.07-.45l15.98,12.01h-36.09l15.98-12.01ZM74.15,123.04H31.78v-31.22h42.37v31.22ZM78.95,123.04h-2.4v-33.62h2.4v33.62Z"/>
  <path class="st0" d="M40.19,94.22h-4.8c-.66,0-1.2.54-1.2,1.2v24.02c0,.66.54,1.2,1.2,1.2h4.8c.66,0,1.2-.54,1.2-1.2v-24.02c0-.66-.54-1.2-1.2-1.2M38.99,118.23h-2.4v-21.62h2.4v21.62Z"/>
  <path class="st0" d="M50.31,94.22h-4.8c-.66,0-1.2.54-1.2,1.2v24.02c0,.66.54,1.2,1.2,1.2h4.8c.66,0,1.2-.54,1.2-1.2v-24.02c0-.66-.54-1.2-1.2-1.2M49.11,118.23h-2.4v-21.62h2.4v21.62Z"/>
  <path class="st0" d="M60.43,94.22h-4.8c-.66,0-1.2.54-1.2,1.2v24.02c0,.66.54,1.2,1.2,1.2h4.8c.66,0,1.2-.54,1.2-1.2v-24.02c0-.66-.54-1.2-1.2-1.2M59.22,118.23h-2.4v-21.62h2.4v21.62Z"/>
  <path class="st0" d="M70.55,94.22h-4.8c-.66,0-1.2.54-1.2,1.2v24.02c0,.66.54,1.2,1.2,1.2h4.8c.66,0,1.2-.54,1.2-1.2v-24.02c0-.66-.54-1.2-1.2-1.2M69.34,118.23h-2.4v-21.62h2.4v21.62Z"/>
</svg>