<?xml version="1.0" encoding="UTF-8"?>
<svg id="Capa_1" xmlns="http://www.w3.org/2000/svg" version="1.1" viewBox="0 0 221.94 216.95">
  <!-- Generator: Adobe Illustrator 29.4.0, SVG Export Plug-In . SVG Version: 2.1.0 Build 152)  -->
  <defs>
    <style>
      .st0 {
        fill: #e42529;
      }
    </style>
  </defs>
  <path class="st0" d="M187.82,131.54s.02-.1.02-.15v-14.9c0-6.34-4.8-11.95-11.69-13.64l-3.24-.79v-9.89c0-12.46-7.97-23.14-19.84-26.57l-20.67-5.99c-1.33-.38-2.7.38-3.08,1.69-.24.82-.03,1.67.47,2.28l-.02,54.53H28.4l.22,13.32c.13,7.9,6.77,14.83,14.2,14.83h3.62c2.18,5.78,7.75,9.91,14.28,9.91s12.11-4.13,14.29-9.91h68.35c2.18,5.78,7.76,9.91,14.29,9.91s12.11-4.13,14.29-9.91h10.72c4.03,0,6.83-4.21,6.83-8v-2.28c0-2.2-.85-3.6-1.67-4.44M167.93,92.16v8.38l-14.13-2.38c-2.64-.45-3.81-3.73-4.23-6.55l18.34-.03c0,.2.02.39.02.59M134.76,65.47l16.92,4.9c7.9,2.28,13.69,8.5,15.58,16.22l-22.85.04v2.48c0,5.77,2.25,12.88,8.57,13.94l15.67,2.64c.32.33.71.6,1.18.71l5.13,1.26c3.92.97,7.9,4.31,7.9,8.82v13.16h-14.89c-2.73-2.5-6.34-4.04-10.32-4.04s-7.61,1.55-10.33,4.06h-12.58s.02-64.21.02-64.21ZM60.73,152.13c-6.19,0-11.23-5.04-11.23-11.23s5.04-11.23,11.23-11.23,11.24,5.04,11.24,11.23-5.04,11.23-11.24,11.23M142.37,140.89c0,.14.02.26.02.39h-66.4c0-.13.02-.26.02-.39,0-8.42-6.86-15.28-15.28-15.28s-15.28,6.86-15.28,15.28c0,.14.02.26.02.39h-2.65c-4.74,0-9.14-4.74-9.23-9.95l-.14-8.26h96.31v6.6l-42.27.02c-1.38,0-2.49,1.12-2.48,2.49,0,1.38,1.11,2.49,2.49,2.49l56.23-.03c-.86,1.91-1.35,4.02-1.35,6.25M157.65,152.13c-6.2,0-11.23-5.04-11.23-11.23s5.04-11.23,11.23-11.23,11.23,5.04,11.23,11.23-5.04,11.23-11.23,11.23M184.52,138.26h0c0,1.5-1.08,3.02-1.86,3.02h-9.75c0-.13.02-.26.02-.39,0-2.23-.49-4.35-1.35-6.26h11.27c.55,0,1.13.12,1.37.34.25.22.3.67.3,1.01v2.28Z"/>
  <path class="st0" d="M80.1,108.8h37.55c1.44,0,2.6-1.17,2.6-2.6v-37.55c0-1.44-1.17-2.6-2.6-2.6h-37.55c-1.44,0-2.6,1.17-2.6,2.6v37.55c0,1.44,1.17,2.6,2.6,2.6M82.7,71.24h32.35v32.35h-32.35v-32.35Z"/>
  <path class="st0" d="M32.22,108.8h37.55c1.44,0,2.6-1.17,2.6-2.6v-37.55c0-1.44-1.16-2.6-2.6-2.6h-37.55c-1.44,0-2.6,1.17-2.6,2.6v37.55c0,1.44,1.17,2.6,2.6,2.6M34.82,71.24h32.35v32.35h-32.35v-32.35Z"/>
  <path class="st0" d="M60.73,133.03c-2.08,0-4.08.83-5.56,2.3-1.47,1.47-2.3,3.47-2.3,5.56s.83,4.08,2.3,5.56c1.47,1.47,3.47,2.3,5.56,2.3s4.08-.83,5.56-2.3c1.47-1.47,2.3-3.47,2.3-5.56s-.83-4.08-2.3-5.56c-1.47-1.47-3.47-2.3-5.56-2.3M63.51,143.67c-.74.74-1.74,1.15-2.78,1.15s-2.04-.41-2.78-1.15-1.15-1.74-1.15-2.78.41-2.04,1.15-2.78,1.74-1.15,2.78-1.15,2.04.41,2.78,1.15,1.15,1.74,1.15,2.78-.41,2.04-1.15,2.78"/>
  <path class="st0" d="M157.65,133.03c-2.08,0-4.08.83-5.56,2.3-1.47,1.47-2.3,3.47-2.3,5.56s.83,4.08,2.3,5.56c1.47,1.47,3.47,2.3,5.56,2.3s4.08-.83,5.56-2.3c1.47-1.47,2.3-3.47,2.3-5.56s-.83-4.08-2.3-5.56c-1.47-1.47-3.47-2.3-5.56-2.3M160.43,143.67c-.74.74-1.74,1.15-2.78,1.15s-2.04-.41-2.78-1.15-1.15-1.74-1.15-2.78.41-2.04,1.15-2.78,1.74-1.15,2.78-1.15,2.04.41,2.78,1.15,1.15,1.74,1.15,2.78-.41,2.04-1.15,2.78"/>
  <path class="st0" d="M192.09,157.44h-68.88c-1.3,0-2.36-1.06-2.36-2.36s1.06-2.36,2.36-2.36h68.88c1.31,0,2.36,1.06,2.36,2.36s-1.06,2.36-2.36,2.36"/>
  <path class="st0" d="M98.73,157.44H29.85c-1.3,0-2.36-1.06-2.36-2.36s1.06-2.36,2.36-2.36h68.88c1.31,0,2.36,1.06,2.36,2.36s-1.06,2.36-2.36,2.36"/>
</svg>