<?xml version="1.0" encoding="UTF-8"?>
<svg id="Capa_1" xmlns="http://www.w3.org/2000/svg" version="1.1" viewBox="0 0 221.94 216.95">
  <!-- Generator: Adobe Illustrator 29.4.0, SVG Export Plug-In . SVG Version: 2.1.0 Build 152)  -->
  <defs>
    <style>
      .st0 {
        fill: #e42529;
      }
    </style>
  </defs>
  <path class="st0" d="M56.84,66.45v-.45c0-1.09-.88-1.97-1.97-1.97h-7.89c-1.09,0-1.97.88-1.97,1.97v45.55c0,1.09.88,1.97,1.97,1.97h86.95c1.09,0,1.97-.88,1.97-1.97v-45.55c0-1.09-.88-1.97-1.97-1.97h-7.89c-1.09,0-1.97.88-1.97,1.97v.45l.04,1.55-5.19-.03h-62.07v-1.52ZM48.95,67.97h3.94v41.6h-3.94v-41.6ZM56.84,71.91h67.22v37.66H56.84v-37.66ZM128.01,67.97h3.94v41.6h-3.94v-41.6Z"/>
  <path class="st0" d="M70.65,75.86h-7.89c-1.09,0-1.97.88-1.97,1.97v25.82c0,1.09.88,1.97,1.97,1.97h7.89c1.09,0,1.97-.88,1.97-1.97v-25.82c0-1.09-.88-1.97-1.97-1.97M68.67,101.68h-3.94v-21.88h3.94v21.88Z"/>
  <path class="st0" d="M86.58,75.86h-7.89c-1.09,0-1.97.88-1.97,1.97v25.82c0,1.09.88,1.97,1.97,1.97h7.89c1.09,0,1.97-.88,1.97-1.97v-25.82c0-1.09-.88-1.97-1.97-1.97M84.61,101.68h-3.94v-21.88h3.94v21.88Z"/>
  <path class="st0" d="M102.36,75.86h-7.89c-1.09,0-1.97.88-1.97,1.97v25.82c0,1.09.88,1.97,1.97,1.97h7.89c1.09,0,1.97-.88,1.97-1.97v-25.82c0-1.09-.88-1.97-1.97-1.97M100.39,101.68h-3.94v-21.88h3.94v21.88Z"/>
  <path class="st0" d="M118.14,75.86h-7.89c-1.09,0-1.97.88-1.97,1.97v25.82c0,1.09.88,1.97,1.97,1.97h7.89c1.09,0,1.97-.88,1.97-1.97v-25.82c0-1.09-.88-1.97-1.97-1.97M116.17,101.68h-3.94v-21.88h3.94v21.88Z"/>
  <path class="st0" d="M185.43,130.85s.02-.09.02-.14v-14.07c0-5.98-4.54-11.28-11.04-12.88l-3.06-.75v-9.33c0-11.76-7.53-21.84-18.73-25.09l-19.51-5.65c-1.25-.36-2.55.36-2.91,1.6-.23.78-.03,1.58.45,2.16l-.02,51.47H34.94l.21,12.58c.12,7.46,6.39,14,13.41,14h3.42c2.06,5.46,7.32,9.36,13.48,9.36s11.43-3.9,13.49-9.36h64.52c2.06,5.46,7.32,9.36,13.49,9.36s11.43-3.9,13.49-9.36h10.12c3.8,0,6.45-3.98,6.45-7.55v-2.15c0-2.07-.8-3.4-1.58-4.2M166.66,93.67v7.91l-13.34-2.25c-2.49-.42-3.6-3.52-3.99-6.19l17.31-.03c0,.19.02.37.02.56M135.34,68.47l15.97,4.63c7.46,2.16,12.92,8.02,14.71,15.32l-21.57.04v2.35c0,5.44,2.12,12.15,8.09,13.16l14.79,2.5c.3.31.67.56,1.11.67l4.84,1.19c3.71.92,7.46,4.06,7.46,8.32v12.43h-14.05c-2.57-2.36-5.98-3.81-9.74-3.81s-7.18,1.46-9.75,3.83h-11.88s.02-60.61.02-60.61ZM65.46,150.28c-5.85,0-10.61-4.76-10.61-10.61s4.76-10.61,10.61-10.61,10.61,4.76,10.61,10.61-4.76,10.61-10.61,10.61M142.53,139.68c0,.13.02.25.02.37h-62.69c0-.12.02-.24.02-.37,0-7.95-6.47-14.42-14.43-14.42s-14.42,6.47-14.42,14.42c0,.13.02.25.02.37h-2.5c-4.48,0-8.63-4.47-8.71-9.39l-.13-7.8h90.92v6.23l-27.73.02c-2.59,0-4.69,2.11-4.69,4.7l45.6-.03c-.82,1.8-1.28,3.8-1.28,5.9M156.95,150.28c-5.85,0-10.61-4.76-10.61-10.61s4.76-10.61,10.61-10.61,10.61,4.76,10.61,10.61-4.76,10.61-10.61,10.61M182.31,137.19h0c0,1.42-1.02,2.86-1.75,2.86h-9.2c0-.12.02-.24.02-.37,0-2.11-.46-4.1-1.28-5.91h10.64c.52,0,1.07.11,1.29.32.23.21.28.63.28.95v2.15Z"/>
  <path class="st0" d="M76.25,133.2c-1.97,0-3.86.78-5.25,2.18-1.39,1.39-2.18,3.28-2.18,5.25s.78,3.86,2.18,5.25c1.39,1.39,3.28,2.18,5.25,2.18s3.86-.78,5.25-2.18c1.39-1.39,2.18-3.28,2.18-5.25s-.78-3.86-2.18-5.25c-1.39-1.39-3.28-2.18-5.25-2.18M78.87,143.25c-.7.7-1.64,1.09-2.62,1.09s-1.93-.39-2.62-1.09c-.7-.7-1.09-1.64-1.09-2.62s.39-1.93,1.09-2.62c.7-.7,1.64-1.09,2.62-1.09s1.93.39,2.62,1.09,1.09,1.64,1.09,2.62-.39,1.93-1.09,2.62"/>
  <path class="st0" d="M167.74,133.2c-1.97,0-3.86.78-5.25,2.18-1.39,1.39-2.18,3.28-2.18,5.25s.78,3.86,2.18,5.25c1.39,1.39,3.28,2.18,5.25,2.18s3.86-.78,5.25-2.18c1.39-1.39,2.18-3.28,2.18-5.25s-.78-3.86-2.18-5.25c-1.39-1.39-3.28-2.18-5.25-2.18M170.36,143.25c-.7.7-1.64,1.09-2.62,1.09s-1.93-.39-2.62-1.09c-.7-.7-1.09-1.64-1.09-2.62s.39-1.93,1.09-2.62c.7-.7,1.64-1.09,2.62-1.09s1.93.39,2.62,1.09,1.09,1.64,1.09,2.62-.39,1.93-1.09,2.62"/>
  <path class="st0" d="M200.25,156.25h-65.03c-1.23,0-2.23-1-2.23-2.23s1-2.23,2.23-2.23h65.03c1.23,0,2.23,1,2.23,2.23s-1,2.23-2.23,2.23"/>
  <path class="st0" d="M112.12,156.25H47.09c-1.23,0-2.23-1-2.23-2.23s1-2.23,2.23-2.23h65.03c1.23,0,2.23,1,2.23,2.23s-1,2.23-2.23,2.23"/>
</svg>