<?xml version="1.0" encoding="UTF-8"?>
<svg id="Capa_1" xmlns="http://www.w3.org/2000/svg" version="1.1" viewBox="0 0 221.94 216.95">
  <!-- Generator: Adobe Illustrator 29.4.0, SVG Export Plug-In . SVG Version: 2.1.0 Build 152)  -->
  <defs>
    <style>
      .st0 {
        fill: #e42529;
      }
    </style>
  </defs>
  <path class="st0" d="M185.27,138.17c-.65,2.38-1.35,4.68-2.1,6.87-.35,1.01.2,2.11,1.21,2.46.21.07.42.1.63.1.8,0,1.56-.5,1.84-1.31.78-2.27,1.51-4.66,2.17-7.12.28-1.03-.33-2.1-1.36-2.38-1.02-.29-2.1.33-2.38,1.36"/>
  <path class="st0" d="M39.44,170.73c3.02-1.44,4.4-1.87,6.01-.32,3.58,3.42,7.33,1.63,10.06.32,3.01-1.44,4.4-1.87,6.01-.32,3.58,3.42,7.32,1.63,10.05.32,3.01-1.44,4.4-1.87,6.01-.32,3.58,3.42,7.33,1.63,10.06.32,3.01-1.44,4.4-1.87,6.01-.32,3.58,3.42,7.32,1.63,10.05.32,3.01-1.44,4.4-1.87,6.01-.32,3.58,3.42,7.32,1.63,10.05.32,3.02-1.44,4.4-1.87,6.02-.32,3.58,3.42,7.32,1.63,10.05.32,3.01-1.44,4.4-1.87,6.01-.32,3.58,3.42,7.32,1.63,10.05.32,3.02-1.44,4.4-1.87,6.01-.32,3.58,3.42,7.32,1.63,10.06.32,3.01-1.44,4.4-1.87,6.01-.32,1.53,1.46,3.1,1.97,4.6,1.97,2,0,3.9-.9,5.46-1.65,3.01-1.44,4.4-1.87,6.01-.32.72.69,1.86.66,2.55-.06.69-.72.66-1.86-.06-2.55-3.58-3.42-7.32-1.63-10.05-.32-3.01,1.44-4.4,1.87-6.01.32-.14-.14-.29-.22-.44-.34,1.67-2.24,3.27-4.63,4.73-7.26.62-1.12,1.23-2.29,1.83-3.52.46-.96.07-2.13-.9-2.59-.96-.47-2.12-.06-2.59.89-.57,1.17-1.15,2.28-1.73,3.34t0,0c-.94,1.7-3.28,5.28-4.83,7.55-2.24-.23-4.38.78-6.12,1.61-3.01,1.44-4.39,1.87-6.01.32-3.58-3.42-7.32-1.63-10.06-.32-2.44,1.17-3.81,1.61-5.1.93v-59.73l43.76,10.56c-.22,1.58-.44,3.11-.69,4.6h0c-.21,1.29-.43,2.55-.66,3.78-.2,1.05.5,2.06,1.91,2.29.92,0,1.73-.65,1.9-1.58.23-1.26.46-2.54.67-3.85,0,0,0,0,0,0,.34-2.08.65-4.23.93-6.46.12-.98-.51-1.9-1.47-2.13l-9.08-2.19v-28.83c0-1.07-.86-1.94-1.94-1.94h-22.54v-16.73c3.19-1.72,6.38-3.42,9.57-5.16,1.22-.67,1.91-1.69,1.56-3.17-.34-1.47-1.42-2.13-2.8-2.15-2.79-.06-5.58-.03-8.37-.03-.13-.95-.91-1.69-1.89-1.69h-10.08c.02-.26.03-.54.03-.89.02-8.63,0-5.14.02-13.77,0-1.83-.6-3.24-2.32-4.04h-.77c-1.78.67-2.47,1.93-2.45,3.86.07,8.69.09,5.27-.02,13.97,0,.37.06.62.12.89h-10.14c-.98,0-1.75.74-1.89,1.68-1.22,0-2.44,0-3.67,0v.04c-1.85,0-3.71-.08-5.56.03-1.4.08-2.42.86-2.7,2.31-.27,1.37.34,2.38,1.53,3.02,3.45,1.87,6.91,3.71,10.36,5.56v16.27h-22.54c-1.07,0-1.94.86-1.94,1.94v28.83l-9.08,2.19c-.96.23-1.59,1.15-1.47,2.13.11.86.24,1.72.36,2.58-.13,0-.27-.01-.4-.02-.09-.72-.68-1.28-1.42-1.28-.78,0-1.42.63-1.44,1.41-1.44.22-2.9.73-4.14,1.93-1.99,1.9-2.96,5.11-2.96,9.8,0,2.83-.57,4.77-1.59,5.46-.98.66-2.35.14-2.41.12-.24-.1-.49-.15-.74-.15v-5.84c0-.89-.72-1.61-1.61-1.61h-7.66v-9.39c0-.92-.75-1.68-1.67-1.68h-16.24c-.93,0-1.68.75-1.68,1.68v9.39h-7.66c-.89,0-1.61.72-1.61,1.61v13.87l-1.89.43c-.88.2-1.5.98-1.5,1.88,0,.14.01,3.5,1.24,8.13.27,1.03,1.31,1.64,2.35,1.37,1.03-.27,1.64-1.33,1.37-2.36-.63-2.36-.9-4.35-1.02-5.63l18.51-4.17,18.5,4.17c-1.18,13.68-8.19,17.26-8.51,17.42-.4.19-.67.52-.86.88-2.19.95-3.46,1.12-4.84-.2-3.58-3.42-7.32-1.63-10.06-.32-2.59,1.24-3.98,1.64-5.35.77-.07-.2-.16-.41-.3-.59-1.28-1.62-2.42-3.4-3.39-5.3-.49-.95-1.65-1.32-2.59-.84-.95.48-1.32,1.64-.84,2.59.31.61.67,1.18,1.01,1.77-1.69.2-3.28.95-4.62,1.59-3.01,1.44-4.39,1.87-6.01.32-.72-.69-1.86-.66-2.55.06-.69.72-.66,1.86.06,2.55,3.58,3.42,7.33,1.63,10.05.32M107.98,102.02h14.23v7.3l-14.23,3.43v-10.72ZM126.18,102.02h13.2v3.15l-13.2,3.19v-6.34ZM126.18,86.79h13.2v11.25h-13.2v-11.25ZM157.65,86.79v11.25h-14.28v-11.25h14.28ZM157.65,107.67l-13.87-3.34h-.02s-.05,0-.07-.01c-.1-.02-.2-.03-.31-.03v-2.27h14.28v5.66ZM161.63,102.02h17.04v10.72l-17.04-4.11v-6.62ZM178.66,98.04h-17.04v-11.25h17.04v11.25ZM132.45,57.87h21.73v25.04h-21.73v-25.04ZM122.2,98.04h-14.23v-11.25h14.23v11.25ZM141.38,108.68v57.39c-2.59-.71-5.1.46-7.09,1.41-3.01,1.44-4.39,1.87-6.01.32-3.58-3.42-7.32-1.63-10.06-.32-1.46.7-2.53,1.15-3.44,1.26-8.05-10.66-14.45-29.49-17.17-49.5l43.76-10.56ZM66.18,129.43h-12.89v-6.75h12.89v6.75ZM43.88,133.6h31.7v11.54l-15.43-3.48c-.28-.06-.57-.06-.85,0l-15.43,3.48v-11.54ZM82.19,148.27c.05-.94-.59-1.77-1.5-1.98l-1.89-.43v-4.08c.49.14,1.16.27,1.96.27,1.01,0,2.18-.22,3.3-.96,2.21-1.46,3.34-4.38,3.34-8.68,0-3.53.6-5.89,1.77-7.02.42-.4.95-.62,1.54-.77.15.64.7,1.12,1.38,1.12.76,0,1.36-.59,1.43-1.33.2,0,.37,0,.58.02.14.01.27-.03.4-.05,2.67,16.16,7.57,30.98,13.8,41.49-2.25-.24-4.39.77-6.13,1.6-3.01,1.44-4.4,1.87-6.01.32-3.58-3.42-7.32-1.63-10.06-.32-3.01,1.44-4.4,1.87-6.01.32-1.17-1.12-2.35-1.64-3.51-1.84,2.56-3.37,5.17-8.91,5.61-17.69"/>
  <path class="st0" d="M182.49,176.76c-3.01,1.44-4.4,1.87-6.01.32-3.57-3.42-7.32-1.63-10.05-.32-3.01,1.44-4.4,1.87-6.01.32-3.58-3.42-7.32-1.63-10.06-.32-3.01,1.44-4.4,1.87-6.01.32-3.58-3.42-7.32-1.63-10.06-.32-3.01,1.44-4.4,1.87-6.01.32-3.58-3.42-7.32-1.63-10.06-.32-3.01,1.44-4.4,1.87-6.01.32-3.58-3.42-7.32-1.63-10.06-.32-3.01,1.44-4.4,1.87-6.01.32-3.58-3.42-7.32-1.63-10.05-.32-3.01,1.44-4.4,1.87-6.01.32-3.58-3.42-7.32-1.63-10.06-.32-3.01,1.44-4.39,1.87-6.01.32-3.58-3.42-7.33-1.63-10.06-.32-3.01,1.44-4.4,1.87-6.01.32-3.58-3.42-7.32-1.63-10.06-.32-3.01,1.44-4.39,1.87-6.01.32-.72-.69-1.86-.66-2.55.06-.69.72-.66,1.86.06,2.55,3.58,3.41,7.33,1.63,10.06.32,3.01-1.44,4.4-1.87,6.01-.32,3.58,3.41,7.32,1.63,10.05.32,3.01-1.44,4.4-1.87,6.01-.32,3.58,3.41,7.33,1.63,10.06.32,3.01-1.44,4.4-1.87,6.01-.32,3.58,3.41,7.32,1.63,10.05.32,3.01-1.44,4.4-1.87,6.01-.32,3.58,3.41,7.32,1.63,10.05.32,3.02-1.44,4.4-1.87,6.01-.32,3.58,3.41,7.33,1.63,10.06.32,3.01-1.44,4.4-1.87,6.01-.32,3.58,3.41,7.32,1.63,10.05.32,3.01-1.44,4.4-1.87,6.01-.32,3.58,3.41,7.32,1.63,10.06.32,3.01-1.44,4.4-1.87,6.01-.32,3.58,3.41,7.32,1.63,10.05.32,3.01-1.44,4.4-1.87,6.01-.32,1.53,1.46,3.1,1.97,4.6,1.97,2,0,3.89-.9,5.45-1.65,3.02-1.44,4.4-1.87,6.02-.32.72.69,1.86.66,2.55-.06.69-.72.66-1.86-.06-2.55-3.58-3.42-7.32-1.63-10.06-.32"/>
</svg>