<?xml version="1.0" encoding="UTF-8"?>
<svg id="Capa_1" xmlns="http://www.w3.org/2000/svg" version="1.1" viewBox="0 0 221.94 216.95">
  <!-- Generator: Adobe Illustrator 29.4.0, SVG Export Plug-In . SVG Version: 2.1.0 Build 152)  -->
  <defs>
    <style>
      .st0 {
        fill: #e42529;
      }
    </style>
  </defs>
  <path class="st0" d="M164.97,142.35h-16.84c-.9,0-1.63-.73-1.63-1.63s.73-1.63,1.63-1.63h16.84c.9,0,1.63.73,1.63,1.63s-.73,1.63-1.63,1.63"/>
  <path class="st0" d="M187.5,144.31c-.9,0-1.63-.73-1.63-1.63v-34.74c0-3.74-3.04-6.78-6.78-6.78h-21.83c-.9,0-1.63-.73-1.63-1.63v-34.98h-28.99c-5.9,0-12.22,11.62-12.22,28.91v13.1c0,.9-.73,1.63-1.63,1.63h-13.51v16.75h13.51c.9,0,1.63.73,1.63,1.63v7.05c0,2.75,2.05,5.08,4.77,5.42.9.12,1.53.93,1.42,1.83-.11.9-.96,1.53-1.82,1.42-4.35-.55-7.62-4.28-7.62-8.66v-5.42h-13.5c-.9,0-1.63-.73-1.63-1.63v-20.02c0-.9.73-1.63,1.63-1.63h13.5v-11.46c0-18.04,6.8-32.18,15.49-32.18h30.62c.9,0,1.63.73,1.63,1.63v34.98h20.2c5.54,0,10.04,4.5,10.04,10.04v34.74c0,.9-.73,1.63-1.63,1.63"/>
  <path class="st0" d="M97.65,137.44h-63.2c-.9,0-1.63-.73-1.63-1.63v-10.95c0-.9.73-1.63,1.63-1.63h50.63v-58.85c0-.9.73-1.63,1.63-1.63h10.95c.9,0,1.63.73,1.63,1.63v71.43c0,.9-.73,1.63-1.63,1.63M36.07,134.17h59.94v-68.17h-7.68v58.85c0,.9-.73,1.63-1.63,1.63h-50.63v7.68Z"/>
  <path class="st0" d="M75.82,115.87h-41.38c-.9,0-1.63-.73-1.63-1.63v-43.88c0-.9.73-1.63,1.63-1.63h41.38c.9,0,1.63.73,1.63,1.63v43.88c0,.9-.73,1.63-1.63,1.63M36.08,112.6h38.11v-40.61h-38.11v40.61Z"/>
  <path class="st0" d="M148.44,101.16h-26.83c-.9,0-1.63-.73-1.63-1.63v-6.08c0-11.28,3.12-20.07,6.19-22.92.3-.28.7-.44,1.11-.44h21.16c.9,0,1.63.73,1.63,1.63v27.8c0,.9-.73,1.63-1.63,1.63M123.24,97.9h23.57v-24.53h-18.82c-2.09,2.51-4.74,9.9-4.74,20.09v4.44Z"/>
  <path class="st0" d="M133.56,155.66c-8.96,0-16.26-7.3-16.26-16.26s7.3-16.26,16.26-16.26,16.26,7.3,16.26,16.26-7.3,16.26-16.26,16.26M133.56,126.41c-7.17,0-13,5.83-13,13s5.83,13,13,13,13-5.83,13-13-5.83-13-13-13"/>
  <path class="st0" d="M133.56,146.98c-4.18,0-7.57-3.4-7.57-7.57s3.4-7.57,7.57-7.57,7.57,3.4,7.57,7.57-3.4,7.57-7.57,7.57M133.56,135.1c-2.38,0-4.31,1.93-4.31,4.31s1.94,4.31,4.31,4.31,4.31-1.94,4.31-4.31-1.94-4.31-4.31-4.31"/>
  <path class="st0" d="M176.15,155.67c-7.16,0-12.98-5.83-12.98-12.98s5.83-12.99,12.98-12.99,12.98,5.83,12.98,12.99-5.83,12.98-12.98,12.98M176.15,132.96c-5.36,0-9.72,4.36-9.72,9.72s4.36,9.72,9.72,9.72,9.72-4.36,9.72-9.72-4.36-9.72-9.72-9.72"/>
  <path class="st0" d="M176.15,146.28c-1.98,0-3.6-1.61-3.6-3.6s1.61-3.6,3.6-3.6,3.6,1.61,3.6,3.6-1.61,3.6-3.6,3.6M176.15,142.35c-.18,0-.33.15-.33.33,0,.37.67.37.67,0,0-.19-.15-.33-.33-.33"/>
  <path class="st0" d="M44.79,107.1c-.9,0-1.63-.73-1.63-1.63v-26.34c0-.9.73-1.63,1.63-1.63s1.63.73,1.63,1.63v26.34c0,.9-.73,1.63-1.63,1.63"/>
  <path class="st0" d="M55.13,107.1c-.9,0-1.63-.73-1.63-1.63v-26.34c0-.9.73-1.63,1.63-1.63s1.63.73,1.63,1.63v26.34c0,.9-.73,1.63-1.63,1.63"/>
  <path class="st0" d="M65.48,107.1c-.9,0-1.63-.73-1.63-1.63v-26.34c0-.9.73-1.63,1.63-1.63s1.63.73,1.63,1.63v26.34c0,.9-.73,1.63-1.63,1.63"/>
</svg>