<?xml version="1.0" encoding="UTF-8"?>
<svg id="Capa_1" xmlns="http://www.w3.org/2000/svg" version="1.1" viewBox="0 0 221.94 216.95">
  <!-- Generator: Adobe Illustrator 29.4.0, SVG Export Plug-In . SVG Version: 2.1.0 Build 152)  -->
  <defs>
    <style>
      .st0 {
        fill: #e42529;
      }
    </style>
  </defs>
  <path class="st0" d="M56.8,168.5c-.29,0-.59-.05-.88-.14-3.55-1.16-5.94-4.45-5.94-8.17v-61.68c0-4.75,3.87-8.6,8.62-8.6h22.41c.34-1.45.5-2.66.59-3.72h-14.84c-.99,0-1.91-.52-2.42-1.36l-1.93-3.18c-.51-.84-.55-1.88-.1-2.76,3.49-6.77,3.08-9.2,1.01-14.42-1.88-4.75-5.68-9.49-11.62-14.51-.91-.77-1.24-2-.83-3.13l1.39-3.85c.4-1.12,1.47-1.87,2.66-1.87h38.35c.25,0,.5.03.74.1l1.02.28c.19.05.39.13.58.23,1.96,1.04,3.83,2.18,5.57,3.4,4.75,3.34,8.43,7.2,10.96,11.48h10.48c.48,0,.97.13,1.39.36l1.86,1.05c.42.24.78.59,1.03,1,4.26,7.05,5.98,17.1,5.91,24.9h25.64c1.46,0,2.69,1.11,2.81,2.57.45,4.89.16,9.83-.9,15.56l-.24,1.44c-.57,3.66-1.53,9.77-6.31,19.02-.72,1.39-2.45,1.93-3.82,1.21-1.39-.72-1.94-2.42-1.22-3.81,4.36-8.44,5.24-13.99,5.76-17.3l.26-1.6c.77-4.17,1.1-7.88.99-11.43h-51.25c0,4.26-.72,8.3-2.16,12.27-1.35,3.75-3.27,7.36-6.05,11.34-.53.75-1.4,1.21-2.32,1.21h-3.37c-.14,0-.29.02-.43.02h0c-.12,0-.23.01-.34.01h0c-.07,0-.12,0-.19,0-.15.02-.29.03-.44.04-.04,0-.09.02-.14.02-3.1.33-6.37,1.67-9.23,3.8-3.37,2.52-5.89,5.85-7.08,9.37l-13.33,38.92c-.4,1.17-1.5,1.91-2.67,1.91ZM58.59,95.57c-1.63,0-2.95,1.32-2.95,2.94v61.67s0,.09,0,.13l11.81-34.48c1.55-4.59,4.77-8.87,9.06-12.08,3.63-2.71,7.68-4.38,11.74-4.86.18-.04.36-.06.54-.07.15-.02.3-.01.44-.04.12-.02.23-.02.34-.02h0c.12,0,.24-.01.36-.01h0c.11,0,.23,0,.34,0h2.26c2.05-3.09,3.51-5.91,4.55-8.81,1.5-4.14,2.06-8.38,1.72-12.96-.06-.79.21-1.56.74-2.14.54-.58,1.29-.9,2.08-.9h25.55c.05-6.58-1.33-15.29-4.74-21.35l-.54-.31h-36.24l-.41.53c1.69,7.11,2.91,16.96,2,24.23-.01.1-.04.22-.06.32-.18,1.65-.52,3.68-1.3,6.21-.36,1.19-1.46,2.01-2.71,2.01h-24.57ZM68.35,80.54h13.53c-.1-6-1.18-12.72-2.46-17.67-.22-.84-.04-1.75.49-2.44l2.1-2.71c.53-.69,1.36-1.1,2.24-1.1h21.05c-1.94-2.47-4.4-4.77-7.37-6.86-1.46-1.03-3.05-2-4.7-2.89l-.34-.09-36.05.15c5.84,5.18,9.68,10.26,11.74,15.45,2.48,6.25,2.99,10.27-.53,17.65l.29.5Z"/>
  <path class="st0" d="M152.83,175.83H63.85c-.92,0-1.79-.45-2.32-1.21-.53-.76-.65-1.73-.34-2.6l15.09-41.05c1.16-3.32,3.57-6.49,6.76-8.88,3.22-2.4,6.86-3.72,10.25-3.72h69.6c1.3,0,2.5.19,3.55.57,1.68.57,3.1,1.62,4.06,3.02.96,1.38,1.46,3.13,1.46,5.03,0,1.3-.24,2.68-.73,4.07l-15.74,42.92c-.41,1.11-1.48,1.85-2.66,1.85ZM67.91,170.17h82.96l15.04-41c.25-.74.39-1.51.39-2.18,0-.75-.16-1.38-.47-1.82-.27-.39-.7-.69-1.26-.88-.48-.18-1.04-.25-1.69-.25h-69.59c-2.15,0-4.65.95-6.86,2.59-2.26,1.7-4.02,3.98-4.81,6.25l-13.71,37.29Z"/>
  <path class="st0" d="M150.59,100.16h-41.9c-1.56,0-2.83-1.27-2.83-2.83s1.26-2.83,2.83-2.83h41.9c1.56,0,2.83,1.27,2.83,2.83s-1.26,2.83-2.83,2.83"/>
  <path class="st0" d="M147.64,109.89h-41.89c-1.56,0-2.83-1.27-2.83-2.83s1.27-2.83,2.83-2.83h41.89c1.56,0,2.83,1.27,2.83,2.83s-1.26,2.83-2.83,2.83"/>
  <path class="st0" d="M117.57,73.46h-20.97c-1.56,0-2.83-1.27-2.83-2.83s1.27-2.83,2.83-2.83h20.97c1.56,0,2.83,1.27,2.83,2.83s-1.26,2.83-2.83,2.83"/>
  <path class="st0" d="M90.52,54.53h-20.97c-1.56,0-2.83-1.27-2.83-2.83s1.27-2.83,2.83-2.83h20.97c1.56,0,2.83,1.27,2.83,2.83s-1.26,2.83-2.83,2.83"/>
  <path class="st0" d="M101.42,95.57h-26.17c-1.56,0-2.83-1.27-2.83-2.83s1.27-2.83,2.83-2.83h26.17c1.56,0,2.83,1.27,2.83,2.83s-1.26,2.83-2.83,2.83"/>
</svg>