<?xml version="1.0" encoding="UTF-8"?>
<svg id="Capa_1" xmlns="http://www.w3.org/2000/svg" version="1.1" viewBox="0 0 221.94 216.95">
  <!-- Generator: Adobe Illustrator 29.4.0, SVG Export Plug-In . SVG Version: 2.1.0 Build 152)  -->
  <defs>
    <style>
      .st0 {
        fill: #e42529;
      }
    </style>
  </defs>
  <path class="st0" d="M181.8,63.62c0-1-.64-1.9-1.59-2.23l-68.46-23.61c-.5-.17-1.04-.17-1.54,0l-68.46,23.61c-.95.33-1.59,1.23-1.59,2.23v113.32c0,.63.25,1.23.69,1.67.44.45,1.04.69,1.67.69h16.53c.63,0,1.23-.25,1.67-.69.45-.44.69-1.04.69-1.67v-68.46h99.16v68.46c0,.63.25,1.23.69,1.67.45.45,1.05.69,1.67.69h16.52c1.3,0,2.35-1.06,2.36-2.36V63.62ZM110.97,42.51l66.1,22.79v99.83h-11.8v-75.55h2.36c.63,0,1.23-.25,1.67-.69.44-.45.69-1.05.69-1.67v-11.8c0-.63-.25-1.23-.69-1.67-.45-.45-1.05-.69-1.67-.69H54.31c-1.3,0-2.36,1.06-2.36,2.36v11.8c0,.63.25,1.23.69,1.67.44.44,1.04.69,1.67.69h2.36v75.55h-11.8v-99.83l66.1-22.79ZM56.68,77.78h108.6v7.08H56.68v-7.08ZM56.68,174.58h-11.8v-4.72h11.8v4.72ZM61.4,103.75v-4.72h75.55c1.3,0,2.36-1.06,2.36-2.36s-1.06-2.36-2.36-2.36H61.4v-4.72h99.15v4.72h-4.72c-1.3,0-2.36,1.05-2.36,2.36s1.06,2.36,2.36,2.36h4.72v4.72H61.4ZM165.27,169.85h11.8v4.72h-11.8v-4.72Z"/>
  <path class="st0" d="M141.66,143.88h-14.16v-28.33c0-.63-.25-1.23-.69-1.67-.44-.44-1.04-.69-1.67-.69h-30.69c-1.3,0-2.36,1.06-2.36,2.36v28.33h-11.8c-1.3,0-2.36,1.06-2.36,2.36v30.69c0,.63.25,1.23.69,1.67.45.44,1.05.69,1.67.69h61.38c.63,0,1.23-.25,1.67-.69.44-.45.69-1.05.69-1.67v-30.69c0-.63-.25-1.23-.69-1.67-.45-.44-1.05-.69-1.67-.69M122.78,148.61h7.08v4.56h-7.08v-4.56ZM113.34,122.47h-7.08v-4.56h7.08v4.56ZM96.81,117.92h4.72v6.92c0,.63.25,1.23.69,1.67.45.45,1.05.69,1.67.69h11.8c.63,0,1.23-.25,1.67-.69.44-.44.69-1.04.69-1.67v-6.92h4.72v25.97h-25.97v-25.97ZM99.17,153.16h-7.08v-4.56h7.08v4.56ZM82.64,148.61h4.72v6.91c0,.63.25,1.23.69,1.67.45.44,1.05.69,1.67.69h11.8c.63,0,1.23-.25,1.67-.69.45-.44.69-1.04.69-1.67v-6.91h4.72v25.97h-25.97v-25.97ZM139.3,174.58h-25.97v-25.97h4.72v6.91c0,.63.25,1.23.69,1.67.44.44,1.04.69,1.67.69h11.8c.63,0,1.23-.25,1.67-.69s.69-1.04.69-1.67v-6.91h4.72v25.97Z"/>
  <path class="st0" d="M106.25,65.98h9.44c2.53,0,4.87-1.35,6.13-3.54,1.27-2.19,1.27-4.89,0-7.08-1.26-2.19-3.6-3.54-6.13-3.54h-9.44c-2.53,0-4.87,1.35-6.14,3.54-1.26,2.19-1.26,4.89,0,7.08,1.27,2.19,3.6,3.54,6.14,3.54M106.25,56.54h9.44c1.3,0,2.36,1.06,2.36,2.36s-1.06,2.36-2.36,2.36h-9.44c-1.3,0-2.36-1.05-2.36-2.36s1.06-2.36,2.36-2.36"/>
  <path class="st0" d="M148.74,96.67c0,1.3-1.06,2.36-2.36,2.36s-2.36-1.06-2.36-2.36,1.05-2.36,2.36-2.36,2.36,1.06,2.36,2.36"/>
</svg>