<?xml version="1.0" encoding="UTF-8"?>
<svg id="Capa_1" xmlns="http://www.w3.org/2000/svg" version="1.1" viewBox="0 0 221.94 216.95">
  <!-- Generator: Adobe Illustrator 29.4.0, SVG Export Plug-In . SVG Version: 2.1.0 Build 152)  -->
  <defs>
    <style>
      .st0 {
        fill: #e42529;
      }
    </style>
  </defs>
  <path class="st0" d="M89.01,116.38h-18.07c-3.52,0-6.38,2.86-6.38,6.38v5.6c0,.96.78,1.74,1.74,1.74h22.71c.96,0,1.74-.78,1.74-1.74v-10.24c0-.96-.78-1.74-1.74-1.74M71.76,126.62h-3.73v-3.85c0-1.6,1.3-2.9,2.9-2.9h.83v6.75ZM80.05,126.62h-4.81v-6.76h4.81v6.76ZM87.26,126.62h-3.73v-6.76h3.73v6.76Z"/>
  <path class="st0" d="M73.44,143.74h-1.69c-.96,0-1.74.78-1.74,1.74s.78,1.74,1.74,1.74h1.69c.96,0,1.74-.78,1.74-1.74s-.78-1.74-1.74-1.74"/>
  <path class="st0" d="M76.89,145.48c0,.96.78,1.74,1.74,1.74h49.19c.96,0,1.74-.78,1.74-1.74s-.78-1.74-1.74-1.74h-49.19c-.96,0-1.74.78-1.74,1.74"/>
  <path class="st0" d="M177.41,176.75c-3.9,0-5.78-1.63-7.95-3.52-2.36-2.05-5.04-4.37-10.24-4.37s-7.87,2.32-10.24,4.37c-2.17,1.89-4.06,3.52-7.95,3.52s-5.78-1.63-7.95-3.52c-2.36-2.05-5.04-4.37-10.24-4.37s-7.88,2.33-10.24,4.37c-2.17,1.89-4.05,3.52-7.95,3.52s-5.78-1.63-7.96-3.52c-2.36-2.05-5.04-4.37-10.23-4.37s-7.87,2.33-10.23,4.37c-2.18,1.89-4.06,3.52-7.95,3.52s-5.78-1.63-7.96-3.52c-2.36-2.05-5.04-4.37-10.24-4.37-.96,0-1.74.78-1.74,1.74s.78,1.74,1.74,1.74c3.9,0,5.78,1.63,7.96,3.52,2.36,2.05,5.04,4.37,10.24,4.37s7.87-2.32,10.23-4.37c2.17-1.89,4.05-3.52,7.95-3.52s5.78,1.63,7.95,3.52c2.37,2.05,5.04,4.37,10.24,4.37s7.87-2.32,10.24-4.37c2.17-1.89,4.06-3.52,7.95-3.52s5.78,1.63,7.96,3.52c2.36,2.05,5.04,4.37,10.23,4.37s7.87-2.32,10.24-4.37c2.17-1.89,4.06-3.52,7.95-3.52s5.78,1.63,7.96,3.52c2.36,2.05,5.04,4.37,10.23,4.37.96,0,1.74-.78,1.74-1.74s-.78-1.74-1.74-1.74"/>
  <path class="st0" d="M131.28,68.62c1.65-.82,2.71-2.49,2.75-4.33.04-.94-.65-1.74-1.58-1.85-.96-.09-1.81.62-1.9,1.57,0,.06,0,.11,0,.16,0,.82-.66,1.49-1.49,1.49-.66,0-1.24-.44-1.43-1.07-.18-.65.09-1.35.68-1.69,1.54-.92,2.49-2.58,2.5-4.37v-5.07h28.88v71.37h-61.13v-17.45c0-.96-.78-1.74-1.74-1.74h-5.19v-22.1c0-.96-.78-1.74-1.74-1.74h-11.09c-.96,0-1.74.78-1.74,1.74v22.1h-1.34c-8.09.02-15.58,4.27-19.76,11.2l-10.13,16.94h-3.83c-.96,0-1.74.78-1.74,1.74,0,.27.06.53.18.77l10.19,20.58c-.19,0-.38,0-.57,0-.96,0-1.74.78-1.74,1.74s.78,1.74,1.74,1.74c1.03-.01,2.06.12,3.05.41,2.01.6,3.42,1.82,4.91,3.11,2.36,2.05,5.04,4.37,10.24,4.37s7.87-2.32,10.23-4.37c2.17-1.89,4.06-3.52,7.95-3.52s5.78,1.63,7.95,3.52c2.36,2.05,5.04,4.37,10.23,4.37s7.87-2.32,10.24-4.37c2.17-1.89,4.06-3.52,7.95-3.52s5.78,1.63,7.96,3.52c2.36,2.05,5.04,4.37,10.23,4.37s7.88-2.32,10.24-4.37c2.17-1.89,4.06-3.52,7.95-3.52s5.78,1.63,7.96,3.52c1.31,1.14,2.67,2.32,4.51,3.18,1.79.82,3.75,1.23,5.72,1.19.96,0,1.74-.78,1.74-1.74s-.78-1.74-1.74-1.74c-.99,0-1.97-.12-2.92-.38l7.13-28.43c.23-.94-.33-1.88-1.26-2.11-.14-.03-.28-.06-.43-.06h0s-2.89,0-2.89,0v-7.2c0-.96-.78-1.74-1.74-1.74h-3.91V38.45c0-.96-.78-1.74-1.74-1.74h-8.21c-.96,0-1.74.78-1.74,1.74v5.62h-34.04c-.96,0-1.74.78-1.74,1.74v5.89c0,.96.78,1.74,1.74,1.74h1.68v5.07c0,.56-.3,1.08-.78,1.37-2.36,1.39-3.15,4.43-1.76,6.79.66,1.13,1.74,1.94,3,2.28M163.18,40.19h4.73v84.63h-4.73V40.19ZM127.4,47.55h32.3v2.41h-32.3v-2.41ZM80.54,85.26h7.61v4.84h-7.61v-4.84ZM80.54,93.58h7.61v12.04h-7.61v-12.04ZM58.96,118.61c3.54-5.88,9.9-9.49,16.77-9.51h19.36v24.65h-45.19l9.06-15.15ZM171.31,162.73c-.63-.47-1.23-.99-1.85-1.52-2.37-2.05-5.04-4.37-10.24-4.37s-7.87,2.32-10.24,4.37c-2.17,1.89-4.06,3.52-7.95,3.52s-5.78-1.63-7.95-3.52c-2.36-2.05-5.04-4.37-10.24-4.37s-7.88,2.32-10.24,4.37c-2.17,1.89-4.06,3.52-7.95,3.52s-5.78-1.63-7.95-3.52c-2.37-2.05-5.04-4.37-10.24-4.37s-7.87,2.32-10.23,4.37c-2.17,1.89-4.05,3.52-7.95,3.52s-5.78-1.63-7.95-3.52c-1.46-1.26-3.09-2.67-5.38-3.54l-10.11-20.43h64.61c.96,0,1.74-.78,1.74-1.74s-.78-1.74-1.74-1.74h-10.85v-5.46h74.99v5.46h-56.98c-.96,0-1.74.78-1.74,1.74s.78,1.74,1.74,1.74h61.12l-6.39,25.49Z"/>
  <path class="st0" d="M110.31,80.28h-3.36c-1.33,0-2.42,1.08-2.42,2.42v1.54c-.72.42-1.21,1.19-1.21,2.08v1.21c0,.89.49,1.66,1.21,2.08v27.24c-.72.42-1.21,1.19-1.21,2.08v1.21c0,1.33,1.08,2.42,2.42,2.42h46.26c1.33,0,2.42-1.08,2.42-2.42v-1.21c0-.89-.49-1.66-1.21-2.08v-27.24c.72-.42,1.21-1.19,1.21-2.08v-1.21c0-.89-.49-1.66-1.21-2.08h0v-1.54c0-1.33-1.08-2.42-2.41-2.42h-3.36s-2.5-.17-2.5,1.5c-.12.28-.19.59-.19.91v1.21h-31.77v-1.21c0-.33-.07-.63-.19-.91,0,0,.1-1.5-2.5-1.5M106.95,89.94h43.85v26.57h-43.85v-26.57ZM105.75,86.32h46.26v1.21h-46.26v-1.21ZM150.8,83.91h-3.62v-1.21h3.62v1.21ZM106.95,82.7h3.62v1.21h-3.62v-1.21ZM152.01,120.14h-46.26v-1.21h46.26v1.21Z"/>
  <path class="st0" d="M115.59,97.19c.67,0,1.21-.54,1.21-1.21v-2.98c0-.67-.54-1.21-1.21-1.21s-1.21.54-1.21,1.21v2.98c0,.66.54,1.21,1.21,1.21"/>
  <path class="st0" d="M122.24,97.19c.67,0,1.21-.54,1.21-1.21v-2.98c0-.67-.54-1.21-1.21-1.21s-1.21.54-1.21,1.21v2.98c0,.66.54,1.21,1.21,1.21"/>
  <path class="st0" d="M135.52,97.19c.67,0,1.21-.54,1.21-1.21v-2.98c0-.67-.54-1.21-1.21-1.21s-1.21.54-1.21,1.21v2.98c0,.66.54,1.21,1.21,1.21"/>
  <path class="st0" d="M128.88,97.19c.67,0,1.21-.54,1.21-1.21v-2.98c0-.67-.54-1.21-1.21-1.21s-1.21.54-1.21,1.21v2.98c0,.66.54,1.21,1.21,1.21"/>
  <path class="st0" d="M142.16,97.19c.67,0,1.21-.54,1.21-1.21v-2.98c0-.67-.54-1.21-1.21-1.21s-1.21.54-1.21,1.21v2.98c0,.66.54,1.21,1.21,1.21"/>
  <path class="st0" d="M144.95,114.97h-32.02c-.69,0-1.24-.55-1.24-1.24v-7.89c0-.31.12-.61.33-.84l4.99-5.43c.24-.25.57-.4.91-.4h21.96c.34,0,.67.14.91.4l5.06,5.42c.21.23.33.53.33.85v7.89c0,.69-.56,1.24-1.24,1.24M114.17,112.49h29.54v-6.17l-4.36-4.68h-20.88l-4.3,4.67v6.17Z"/>
  <path class="st0" d="M121.61,105.13c1.13,0,2.04.91,2.04,2.04s-.91,2.04-2.04,2.04-2.04-.91-2.04-2.04.91-2.04,2.04-2.04M121.61,103.04c-2.27,0-4.12,1.85-4.12,4.12s1.85,4.12,4.12,4.12,4.12-1.85,4.12-4.12-1.85-4.12-4.12-4.12"/>
  <path class="st0" d="M141.44,111.04h-13.04c-.55,0-.99-.44-.99-.99v-5.97c0-.55.44-.99.99-.99h9.78c.29,0,.57.13.76.35l3.26,3.84c.15.18.23.41.23.64v2.13c0,.55-.44.99-.99.99M129.39,109.06h11.06v-.78l-2.73-3.21h-8.33v3.99Z"/>
  <path class="st0" d="M132.25,73.29v-.4c0-1.22-.99-2.21-2.21-2.21v-2.52c.66-.39,1.1-1.09,1.1-1.9,0-1.22-.99-2.21-2.21-2.21s-2.21.99-2.21,2.21c0,.81.45,1.51,1.1,1.9v2.52c-1.22,0-2.21.99-2.21,2.21v.4l-15.71,7.33,2.29,1.37,13.42-6.26v.47c0,1.22.99,2.21,2.21,2.21h2.21c1.22,0,2.21-.99,2.21-2.21v-.47l13.42,6.26,2.29-1.37-15.71-7.33ZM127.83,76.2v-3.31h2.21v3.31h-2.21Z"/>
</svg>