<?xml version="1.0" encoding="UTF-8"?>
<svg id="Capa_1" xmlns="http://www.w3.org/2000/svg" version="1.1" viewBox="0 0 221.94 216.95">
  <!-- Generator: Adobe Illustrator 29.4.0, SVG Export Plug-In . SVG Version: 2.1.0 Build 152)  -->
  <defs>
    <style>
      .st0 {
        fill: #e42529;
      }
    </style>
  </defs>
  <path class="st0" d="M184.12,130.7s.02-.09.02-.14v-14.18c0-6.03-4.57-11.37-11.13-12.99l-3.08-.76v-9.41c0-11.86-7.59-22.02-18.88-25.3l-19.68-5.7c-1.26-.36-2.57.36-2.93,1.61-.23.78-.03,1.59.45,2.17l-.02,51.9H32.37l.21,12.68c.12,7.52,6.44,14.12,13.52,14.12h3.45c2.07,5.5,7.38,9.44,13.6,9.44s11.53-3.93,13.6-9.44h65.06c2.08,5.5,7.38,9.44,13.6,9.44s11.52-3.93,13.6-9.44h10.2c3.83,0,6.5-4.01,6.5-7.61v-2.17c0-2.09-.81-3.43-1.59-4.23M165.19,93.22v7.97l-13.45-2.27c-2.51-.42-3.63-3.55-4.03-6.24l17.45-.03c0,.19.02.37.02.56M133.62,67.81l16.11,4.67c7.52,2.17,13.03,8.09,14.83,15.44l-21.75.04v2.36c0,5.49,2.14,12.26,8.16,13.27l14.91,2.52c.3.32.67.57,1.12.68l4.89,1.2c3.74.92,7.52,4.1,7.52,8.39v12.53h-14.17c-2.59-2.38-6.03-3.84-9.83-3.84s-7.24,1.47-9.83,3.86h-11.98s.02-61.12.02-61.12ZM63.15,150.3c-5.89,0-10.69-4.8-10.69-10.69s4.8-10.69,10.69-10.69,10.7,4.8,10.7,10.69-4.8,10.69-10.7,10.69M140.86,139.61c0,.13.02.25.02.37h-63.21c0-.12.02-.25.02-.37,0-8.02-6.53-14.54-14.55-14.54s-14.54,6.53-14.54,14.54c0,.13.02.25.02.37h-2.52c-4.52,0-8.7-4.51-8.79-9.47l-.13-7.86h91.68v6.28l-40.24.02c-1.31,0-2.37,1.06-2.36,2.37,0,1.31,1.06,2.37,2.37,2.37l53.52-.03c-.82,1.82-1.29,3.83-1.29,5.95M155.41,150.3c-5.9,0-10.69-4.8-10.69-10.69s4.8-10.69,10.69-10.69,10.69,4.8,10.69,10.69-4.8,10.69-10.69,10.69M180.98,137.1h0c0,1.43-1.03,2.88-1.77,2.88h-9.28c0-.12.02-.25.02-.37,0-2.12-.47-4.14-1.29-5.96h10.73c.53,0,1.08.11,1.31.32.23.21.28.64.28.96v2.17Z"/>
  <path class="st0" d="M34.85,122.65h96.27c1.37,0,2.48-1.11,2.48-2.47v-47c0-1.37-1.11-2.48-2.48-2.48H34.85c-1.37,0-2.47,1.11-2.47,2.48v47c0,1.37,1.11,2.47,2.47,2.47M37.33,75.66h91.32v42.04H37.33v-42.04Z"/>
  <path class="st0" d="M63.15,132.12c-1.98,0-3.89.79-5.29,2.19-1.4,1.4-2.19,3.3-2.19,5.29s.79,3.89,2.19,5.29c1.4,1.4,3.31,2.19,5.29,2.19s3.89-.79,5.29-2.19c1.4-1.4,2.19-3.31,2.19-5.29s-.79-3.89-2.19-5.29c-1.4-1.4-3.31-2.19-5.29-2.19M65.8,142.25c-.7.7-1.65,1.09-2.65,1.09s-1.94-.39-2.65-1.09-1.09-1.65-1.09-2.65.39-1.94,1.09-2.65,1.65-1.09,2.65-1.09,1.94.39,2.65,1.09,1.09,1.65,1.09,2.65-.39,1.94-1.09,2.65"/>
  <path class="st0" d="M155.41,132.12c-1.98,0-3.89.79-5.29,2.19-1.4,1.4-2.19,3.3-2.19,5.29s.79,3.89,2.19,5.29c1.4,1.4,3.31,2.19,5.29,2.19s3.89-.79,5.29-2.19c1.4-1.4,2.19-3.31,2.19-5.29s-.79-3.89-2.19-5.29c-1.4-1.4-3.31-2.19-5.29-2.19M158.05,142.25c-.7.7-1.65,1.09-2.65,1.09s-1.94-.39-2.65-1.09-1.09-1.65-1.09-2.65.39-1.94,1.09-2.65,1.65-1.09,2.65-1.09,1.94.39,2.65,1.09,1.09,1.65,1.09,2.65-.39,1.94-1.09,2.65"/>
  <path class="st0" d="M188.19,155.36h-65.57c-1.24,0-2.25-1.01-2.25-2.25s1.01-2.24,2.25-2.24h65.57c1.24,0,2.25,1.01,2.25,2.24s-1.01,2.25-2.25,2.25"/>
  <path class="st0" d="M99.32,155.36H33.75c-1.24,0-2.25-1.01-2.25-2.25s1.01-2.24,2.25-2.24h65.57c1.24,0,2.25,1.01,2.25,2.24s-1.01,2.25-2.25,2.25"/>
  <path class="st0" d="M112.85,66.83h-17.88c-1.45,0-2.62-1.17-2.62-2.62s1.17-2.62,2.62-2.62h17.88c1.45,0,2.62,1.17,2.62,2.62s-1.17,2.62-2.62,2.62"/>
  <path class="st0" d="M122.38,66.81c-.35,0-.7-.04-1.01-.17-.35-.13-.61-.35-.88-.57-.48-.52-.74-1.18-.74-1.88,0-.65.26-1.35.74-1.83.74-.74,1.88-.96,2.88-.56.31.13.57.3.83.56.48.48.78,1.18.78,1.83,0,.7-.31,1.36-.78,1.88-.26.22-.53.44-.83.57-.35.13-.65.17-1,.17"/>
</svg>