<?xml version="1.0" encoding="UTF-8"?>
<svg id="Capa_1" xmlns="http://www.w3.org/2000/svg" version="1.1" viewBox="0 0 221.94 216.95">
  <!-- Generator: Adobe Illustrator 29.4.0, SVG Export Plug-In . SVG Version: 2.1.0 Build 152)  -->
  <defs>
    <style>
      .st0 {
        fill: #e42529;
      }
    </style>
  </defs>
  <path class="st0" d="M77.89,117.81h-1.32c-1.51,0-2.74-1.23-2.74-2.74v-41.83h-2.19c-3.29,0-5.96-2.67-5.96-5.96s2.67-5.96,5.96-5.96h34.38v-13.2c0-1.51,1.22-2.74,2.74-2.74h8.4c1.51,0,2.74,1.22,2.74,2.74v13.2h29.43c3.29,0,5.96,2.67,5.96,5.96s-2.67,5.96-5.96,5.96h-2.19v41.71c0,.97-.52,1.87-1.36,2.36-.84.49-1.88.5-2.72.03-13.18-7.35-28.16-12.59-31.82-13.82-3.68,1.24-18.8,6.52-32.03,13.94-.41.23-.87.35-1.34.35M71.65,66.8c-.26,0-.48.22-.48.48s.22.48.48.48h4.93c1.51,0,2.74,1.22,2.74,2.74v40.68c14.85-7.89,30.42-12.93,31.11-13.15.55-.17,1.14-.17,1.68,0,.67.22,15.21,4.92,29.57,12.35v-39.87c0-1.51,1.23-2.74,2.74-2.74h4.92c.26,0,.48-.22.48-.48s-.22-.48-.48-.48h-32.17c-1.51,0-2.74-1.23-2.74-2.74v-13.2h-2.93v13.2c0,1.51-1.22,2.74-2.74,2.74h-37.12Z"/>
  <path class="st0" d="M94.15,90.76h-5.81c-2.33,0-4.22-1.9-4.22-4.22v-8.19c0-2.33,1.89-4.22,4.22-4.22h5.81c2.33,0,4.22,1.89,4.22,4.22v8.19c0,2.33-1.89,4.22-4.22,4.22M88.34,78.12l-.23,8.42,6.04.23c.13,0,.23-.1.23-.23v-8.19l-6.04-.23Z"/>
  <path class="st0" d="M113.27,90.76h-5.81c-2.33,0-4.22-1.9-4.22-4.22v-8.19c0-2.33,1.89-4.22,4.22-4.22h5.81c2.33,0,4.22,1.89,4.22,4.22v8.19c0,2.33-1.89,4.22-4.22,4.22M107.46,78.12l-.23,8.42,6.04.23c.13,0,.23-.1.23-.23v-8.19l-6.04-.23Z"/>
  <path class="st0" d="M132.38,90.76h-5.81c-2.33,0-4.22-1.9-4.22-4.22v-8.19c0-2.33,1.89-4.22,4.22-4.22h5.81c2.33,0,4.22,1.89,4.22,4.22v8.19c0,2.33-1.89,4.22-4.22,4.22M126.58,78.12l-.23,8.42,6.04.23c.13,0,.23-.1.23-.23v-8.19l-6.04-.23Z"/>
  <path class="st0" d="M73.04,160.65c-3.12,0-6.26-.72-10.65-2.15-4.64-1.51-7.14-1.83-8.42-1.83-1.19,0-3.59.31-8.24,1.83-1.78.58-3.41,1.03-4.89,1.36-1.47.32-2.94-.61-3.27-2.09-.33-1.47.6-2.94,2.08-3.27,1.32-.29,2.77-.69,4.37-1.22,4.36-1.41,7.61-2.1,9.95-2.1,2.47,0,5.78.68,10.12,2.09,7.62,2.5,10.28,2.5,17.79,0,8.45-2.79,11.64-2.79,20.08,0,7.5,2.49,10.16,2.49,17.79,0,8.02-2.59,11.04-2.92,20.06,0,7.62,2.5,10.28,2.5,17.79,0,8.44-2.79,11.63-2.78,20.07,0,1.81.6,3.38,1.11,4.75,1.48,1.46.4,2.32,1.9,1.93,3.36-.4,1.46-1.87,2.33-3.36,1.93-1.45-.39-3.12-.93-5.03-1.56-7.32-2.41-9.34-2.41-16.63,0-8.67,2.87-12.43,2.88-21.22,0-7.75-2.52-9.48-2.33-16.67,0-8.78,2.86-12.56,2.86-21.2,0-7.31-2.41-9.34-2.41-16.64,0-4.33,1.44-7.44,2.16-10.56,2.16"/>
  <path class="st0" d="M73.04,171.56c-3.12,0-6.26-.72-10.65-2.15-4.64-1.51-7.14-1.83-8.42-1.83-1.19,0-3.58.31-8.25,1.83-1.78.59-3.4,1.04-4.88,1.36-1.47.33-2.94-.61-3.27-2.08-.33-1.48.6-2.94,2.08-3.27,1.32-.3,2.77-.7,4.37-1.22,4.36-1.41,7.61-2.1,9.95-2.1,2.47,0,5.78.68,10.12,2.09,7.62,2.5,10.28,2.5,17.79,0,8.45-2.79,11.64-2.79,20.08,0,7.5,2.49,10.16,2.49,17.79,0,8-2.59,11.02-2.93,20.06,0,7.62,2.5,10.28,2.5,17.79,0,8.44-2.79,11.63-2.79,20.07,0,1.81.6,3.38,1.11,4.75,1.48,1.46.4,2.32,1.9,1.93,3.36-.4,1.46-1.87,2.32-3.36,1.93-1.45-.39-3.12-.93-5.03-1.56-7.32-2.41-9.34-2.41-16.63,0-8.67,2.87-12.43,2.88-21.22,0-7.76-2.52-9.48-2.33-16.67,0-8.78,2.87-12.56,2.87-21.2,0-7.31-2.41-9.34-2.41-16.64,0-4.33,1.44-7.44,2.16-10.56,2.16"/>
  <path class="st0" d="M75.08,149.73c-1.82,0-3.71-.24-5.84-.74-.83-.2-1.51-.76-1.86-1.53-1.5-3.3-2.65-6.1-3.46-8.45-2.47,1.6-5.81,1.89-8.57.59-4.39-2.07-6.28-7.33-4.21-11.73l6.79-14.4c1-2.13,2.77-3.74,4.99-4.53,2.22-.8,4.61-.68,6.74.32,2.4,1.13,4.05,3.21,4.72,5.58,11.26-8.32,27.66-14.66,35.07-17.28.84-.3,1.77-.17,2.5.35.73.51,1.16,1.35,1.16,2.24v46.69c0,.79-.34,1.54-.94,2.06-.59.52-1.38.75-2.16.66-2.14-.28-4.46-.87-7.74-1.96-7.3-2.41-9.34-2.41-16.64,0-4.07,1.35-7.2,2.14-10.54,2.14M71.8,143.94c3.74.7,6.52.31,12.1-1.55,8.45-2.78,11.64-2.78,20.08,0,1.4.47,2.58.83,3.63,1.1v-39.43c-9.01,3.41-26.71,10.88-35.21,19.67-.94.96-2.42,1.11-3.53.35s-1.49-2.21-.92-3.42l.94-2.01c.78-1.66.07-3.65-1.6-4.43-.8-.38-1.71-.43-2.55-.12-.84.3-1.51.91-1.88,1.72l-6.78,14.4c-.78,1.66-.07,3.65,1.6,4.43,1.62.77,3.68,0,4.43-1.59l.58-1.24c.52-1.12,1.7-1.75,2.95-1.53,1.21.21,2.14,1.2,2.26,2.43.12,1.21.79,4.24,3.88,11.23"/>
  <path class="st0" d="M145.75,149.73c-3.32,0-6.47-.78-10.6-2.14-7.76-2.52-9.48-2.33-16.67,0-3.31,1.08-5.63,1.66-7.76,1.94-.78.1-1.57-.13-2.17-.65s-.94-1.27-.94-2.06v-46.99c0-.89.43-1.72,1.15-2.24.72-.51,1.63-.65,2.49-.35,6.98,2.42,23.11,8.52,34.7,16.68.8-1.99,2.34-3.68,4.43-4.66,2.13-1.01,4.53-1.12,6.74-.32,2.22.79,3.99,2.41,4.99,4.54l6.78,14.4c1.01,2.13,1.12,4.53.33,6.74-.8,2.22-2.41,3.99-4.54,5-2.31,1.08-5.01,1.09-7.26.11-.78,2.15-1.82,4.66-3.11,7.52-.34.75-1,1.3-1.8,1.52-2.52.67-4.69.98-6.78.98M126.7,140.32c2.8,0,5.76.65,10.14,2.07,6,1.97,8.86,2.31,13.03,1.38,1.73-3.93,2.9-7.05,3.47-9.29.26-1.04,1.1-1.82,2.15-2.02,1.05-.18,2.12.24,2.74,1.1.91,1.28,2.69,1.76,4.13,1.08.8-.38,1.41-1.05,1.71-1.88.3-.84.26-1.74-.12-2.55l-6.79-14.4c-.37-.81-1.05-1.41-1.88-1.72-.84-.3-1.74-.26-2.55.12-1.56.73-2.3,2.51-1.72,4.14.42,1.17,0,2.47-1.02,3.18-1.03.7-2.39.63-3.34-.17-9.4-7.99-25.31-14.56-33.56-17.63v39.75c1.06-.27,2.27-.63,3.69-1.1,4.12-1.34,6.93-2.08,9.91-2.08"/>
  <path class="st0" d="M156,137.89c-1.37,0-2.56-1.03-2.71-2.42-.99-8.47-10.73-18.5-10.83-18.6-1.06-1.08-1.04-2.82.04-3.87,1.08-1.06,2.81-1.04,3.87.03.46.47,11.16,11.47,12.36,21.81.17,1.5-.9,2.86-2.4,3.03-.11.01-.21.02-.32.02"/>
  <path class="st0" d="M64.89,137.89c-.1,0-.21,0-.32-.02-1.5-.17-2.58-1.53-2.4-3.03,1.2-10.34,11.9-21.34,12.36-21.81,1.06-1.08,2.79-1.1,3.87-.03,1.08,1.06,1.1,2.79.04,3.87-.1.1-9.84,10.13-10.83,18.6-.16,1.4-1.34,2.42-2.71,2.42"/>
</svg>