<svg width="194" height="194" viewBox="0 0 194 194" fill="none" xmlns="http://www.w3.org/2000/svg">
<path d="M96.9999 42.5344C91.7091 42.5344 87.4048 38.23 87.4048 32.9392V9.59514C87.4048 4.30431 91.7091 0 96.9999 0C102.291 0 106.595 4.30431 106.595 9.59514V32.9392C106.595 38.23 102.291 42.5344 96.9999 42.5344Z" fill="#CE1D1B"/>
<path d="M64.9735 51.1178C61.5547 51.1178 58.3689 49.2788 56.66 46.3192L44.988 26.1027C42.3421 21.5206 43.918 15.6404 48.5 12.9945C49.9574 12.1527 51.6149 11.708 53.2937 11.708C56.7125 11.708 59.8982 13.547 61.6071 16.5065L73.2792 36.7231C75.9251 41.3051 74.3492 47.1853 69.7672 49.8312C68.3097 50.6731 66.6523 51.1178 64.9735 51.1178Z" fill="#CE1D1B"/>
<path d="M41.5175 74.5659C39.8387 74.5659 38.1813 74.1212 36.7239 73.2794L16.5073 61.6073C14.2876 60.3256 12.7001 58.2565 12.0369 55.7805C11.3737 53.3046 11.7136 50.7189 12.9953 48.4992C14.7042 45.5397 17.8899 43.7007 21.3087 43.7007C22.9875 43.7007 24.645 44.1454 26.1024 44.9872L46.319 56.6593C50.901 59.3052 52.4769 65.1844 49.831 69.7674C48.1221 72.7269 44.9363 74.5659 41.5175 74.5659Z" fill="#CE1D1B"/>
<path d="M9.59514 106.595C4.30431 106.595 0 102.291 0 97.0002C0 91.7093 4.30431 87.405 9.59514 87.405H32.9392C38.23 87.405 42.5344 91.7093 42.5344 97.0002C42.5344 102.291 38.23 106.595 32.9392 106.595H9.59514Z" fill="#D13F3F"/>
<path d="M21.3091 150.298C17.8903 150.298 14.7045 148.459 12.9956 145.5C10.3507 140.918 11.9256 135.038 16.5076 132.392L36.7242 120.72C38.1816 119.878 39.8391 119.433 41.5179 119.433C44.9367 119.433 48.1224 121.272 49.8313 124.232C51.113 126.451 51.4529 129.037 50.7897 131.513C50.1265 133.989 48.538 136.058 46.3193 137.34L26.1027 149.012C24.6453 149.854 22.9879 150.298 21.3091 150.298Z" fill="#D13F3F"/>
<path d="M53.2937 182.291C51.6149 182.291 49.9574 181.846 48.5 181.005C43.918 178.359 42.3421 172.478 44.988 167.896L56.66 147.68C58.3689 144.72 61.5547 142.881 64.9735 142.881C66.6523 142.881 68.3097 143.326 69.7672 144.168C74.3492 146.814 75.9251 152.693 73.2792 157.276L61.6071 177.493C59.8982 180.452 56.7125 182.291 53.2937 182.291Z" fill="#D13F3F"/>
<path d="M96.9999 194C91.7091 194 87.4048 189.696 87.4048 184.405V161.061C87.4048 155.77 91.7091 151.466 96.9999 151.466C102.291 151.466 106.595 155.77 106.595 161.061V184.405C106.595 189.696 102.291 194 96.9999 194Z" fill="#DD6F6F"/>
<path d="M140.706 182.291C137.288 182.291 134.102 180.452 132.393 177.493L120.721 157.276C118.075 152.694 119.651 146.814 124.233 144.168C125.69 143.326 127.348 142.881 129.027 142.881C132.445 142.881 135.631 144.72 137.34 147.68L149.012 167.896C151.657 172.478 150.082 178.359 145.5 181.005C144.043 181.846 142.385 182.291 140.706 182.291Z" fill="#DD6F6F"/>
<path d="M172.691 150.298C171.012 150.298 169.355 149.854 167.897 149.012L147.681 137.34C145.461 136.058 143.874 133.989 143.21 131.513C142.547 129.037 142.887 126.451 144.169 124.232C145.878 121.272 149.064 119.433 152.482 119.433C154.161 119.433 155.819 119.878 157.276 120.72L177.493 132.392C182.075 135.038 183.65 140.918 181.005 145.5C179.296 148.459 176.11 150.298 172.691 150.298Z" fill="#DD6F6F"/>
<path d="M161.061 106.595C155.77 106.595 151.466 102.291 151.466 97.0002C151.466 91.7093 155.77 87.405 161.061 87.405H184.405C189.696 87.405 194 91.7093 194 97.0002C194 102.291 189.696 106.595 184.405 106.595H161.061Z" fill="#E89595"/>
<path d="M152.482 74.5659C149.063 74.5659 145.878 72.7269 144.169 69.7674C141.524 65.1854 143.099 59.3052 147.681 56.6593L167.897 44.9872C169.355 44.1454 171.012 43.7007 172.691 43.7007C176.11 43.7007 179.296 45.5397 181.004 48.4992C182.286 50.7189 182.627 53.3046 181.963 55.7805C181.3 58.2565 179.711 60.3256 177.492 61.6073L157.276 73.2794C155.818 74.1212 154.161 74.5659 152.482 74.5659Z" fill="#E89595"/>
<path d="M129.027 51.118C127.348 51.118 125.69 50.6733 124.233 49.8315C119.651 47.1866 118.075 41.3064 120.721 36.7244L132.393 16.5078C134.102 13.5482 137.288 11.7092 140.706 11.7092C142.385 11.7092 144.043 12.1539 145.5 12.9958C150.082 15.6407 151.658 21.5209 149.012 26.1029L137.34 46.3195C135.631 49.279 132.445 51.118 129.027 51.118Z" fill="#EFB4B4"/>
</svg>
