<svg width="293" height="183" viewBox="0 0 293 183" fill="none" xmlns="http://www.w3.org/2000/svg">
<path d="M4.45033 57.8645V1.99795L2.22516 3.99589H68.8889C71.7527 3.99589 71.7571 0 68.8889 0H2.22516C1.02135 0 0 0.91506 0 1.99795V57.8645C0 60.4359 4.45033 60.4399 4.45033 57.8645Z" fill="#B9B9B9"/>
<path d="M288.55 125.136V181.002L290.775 179.004C283.236 179.004 275.697 179.004 268.158 179.004C256.229 179.004 244.3 179.004 232.369 179.004H224.109C221.245 179.004 221.241 183 224.109 183C231.648 183 239.187 183 246.726 183C258.655 183 270.584 183 282.515 183H290.775C291.979 183 293 182.085 293 181.002V125.136C293 122.564 288.55 122.56 288.55 125.136Z" fill="#B9B9B9"/>
<path d="M64.4452 179.004H2.22516L4.45033 181.002C4.45033 174.233 4.45033 167.464 4.45033 160.695C4.45033 149.984 4.45033 139.273 4.45033 128.56V121.143C4.45033 118.572 0 118.568 0 121.143C0 127.913 0 134.682 0 141.451C0 152.162 0 162.873 0 173.586V181.002C0 182.083 1.01913 183 2.22516 183H64.4452C67.309 183 67.3134 179.004 64.4452 179.004Z" fill="#B9B9B9"/>
<path d="M228.555 3.99589H290.775L288.55 1.99795V22.3051C288.55 33.0161 288.55 43.7271 288.55 54.4401V61.8564C288.55 64.4278 293 64.4318 293 61.8564C293 55.0874 293 48.3184 293 41.5493C293 30.8383 293 20.1273 293 9.41433V1.99795C293 0.917058 291.981 0 290.775 0H228.555C225.691 0 225.687 3.99589 228.555 3.99589Z" fill="#B9B9B9"/>
</svg>
