<svg width="29" height="29" viewBox="0 0 29 29" fill="none" xmlns="http://www.w3.org/2000/svg">
<path d="M5.45417 21.3917C6.65833 20.4708 8.00417 19.7448 9.49167 19.2135C10.9792 18.6823 12.5375 18.4167 14.1667 18.4167C15.7958 18.4167 17.3542 18.6823 18.8417 19.2135C20.3292 19.7448 21.675 20.4708 22.8792 21.3917C23.7056 20.4236 24.349 19.3257 24.8094 18.0979C25.2698 16.8701 25.5 15.5597 25.5 14.1667C25.5 11.0264 24.3962 8.35243 22.1885 6.14479C19.9809 3.93715 17.3069 2.83333 14.1667 2.83333C11.0264 2.83333 8.35243 3.93715 6.14479 6.14479C3.93715 8.35243 2.83333 11.0264 2.83333 14.1667C2.83333 15.5597 3.06354 16.8701 3.52396 18.0979C3.98438 19.3257 4.62778 20.4236 5.45417 21.3917ZM14.1667 15.5833C12.7736 15.5833 11.599 15.1052 10.6427 14.149C9.68646 13.1927 9.20833 12.0181 9.20833 10.625C9.20833 9.23194 9.68646 8.05729 10.6427 7.10104C11.599 6.14479 12.7736 5.66667 14.1667 5.66667C15.5597 5.66667 16.7344 6.14479 17.6906 7.10104C18.6469 8.05729 19.125 9.23194 19.125 10.625C19.125 12.0181 18.6469 13.1927 17.6906 14.149C16.7344 15.1052 15.5597 15.5833 14.1667 15.5833ZM14.1667 28.3333C12.2069 28.3333 10.3653 27.9615 8.64167 27.2177C6.91806 26.474 5.41875 25.4646 4.14375 24.1896C2.86875 22.9146 1.85938 21.4153 1.11563 19.6917C0.371875 17.9681 0 16.1264 0 14.1667C0 12.2069 0.371875 10.3653 1.11563 8.64167C1.85938 6.91806 2.86875 5.41875 4.14375 4.14375C5.41875 2.86875 6.91806 1.85938 8.64167 1.11563C10.3653 0.371875 12.2069 0 14.1667 0C16.1264 0 17.9681 0.371875 19.6917 1.11563C21.4153 1.85938 22.9146 2.86875 24.1896 4.14375C25.4646 5.41875 26.474 6.91806 27.2177 8.64167C27.9615 10.3653 28.3333 12.2069 28.3333 14.1667C28.3333 16.1264 27.9615 17.9681 27.2177 19.6917C26.474 21.4153 25.4646 22.9146 24.1896 24.1896C22.9146 25.4646 21.4153 26.474 19.6917 27.2177C17.9681 27.9615 16.1264 28.3333 14.1667 28.3333Z" fill="white"/>
</svg>
