<svg width="76" height="94" viewBox="0 0 76 94" fill="none" xmlns="http://www.w3.org/2000/svg">
<path d="M37.7621 44.8279C50.141 44.8279 60.176 34.7928 60.176 22.4139C60.176 10.0351 50.141 0 37.7621 0C25.3832 0 15.3481 10.0351 15.3481 22.4139C15.3481 34.7928 25.3832 44.8279 37.7621 44.8279Z" fill="#B9B9B9"/>
<path d="M75.5241 86.6867C75.5241 86.6867 63.4235 94 37.762 94C12.1006 94 0 86.6867 0 86.6867C0 86.6867 0.132341 75.4492 0 75.2985C0 59.7766 9.00034 51.5404 37.762 51.5404C66.5238 51.5404 75.5241 59.7766 75.5241 75.2985C75.3918 75.4492 75.5241 86.6867 75.5241 86.6867Z" fill="#B9B9B9"/>
</svg>
