<svg width="201" height="33" viewBox="0 0 201 33" fill="none" xmlns="http://www.w3.org/2000/svg">
<path d="M11.6012 33H0L29.316 0.304253H37.854V9.51668C37.854 9.51668 41.2292 0.467761 50.0835 0.467761H78.767V20.2711C78.767 20.2711 78.4339 25.4123 84.7268 25.4123C92.7167 25.4123 91.9725 20.5753 91.9725 20.5753V0H109.371L123.217 17.508V0H131.753V7.82984C131.753 7.82984 133.697 0 141.099 0C148.501 0 172.335 0.15109 172.335 0.15109L201 32.6978H190.375L171.695 12.9049V32.6978H163.485V25.1743C163.485 25.1743 160.418 32.8489 154.465 32.8489H123.378L110.016 16.1233V32.8489H100.825V24.096C100.825 24.096 98.8978 33 84.5708 33C70.2438 33 69.4237 24.7272 69.4237 24.7272V33H49.607C49.607 33 38.3326 30.5515 38.3326 23.3281V33H29.6407V12.5861L11.6033 33H11.6012ZM69.4216 12.6565V9.51875H51.0553C51.0553 9.51875 47.1932 9.83335 47.1932 13.2008V18.1123C47.1932 18.1123 46.0674 23.949 49.451 23.949H60.7254V20.7347H53.6399V12.6606H69.4195L69.4216 12.6565ZM132.24 13.8238V23.7979H154.144C154.144 23.7979 155.595 20.7326 153.174 20.7326H140.599C140.599 20.7326 137.38 21.3349 134.973 18.1123C132.704 15.0884 132.24 13.8259 132.24 13.8259M163.317 19.1969V9.51875H142.861C142.861 9.51875 140.943 9.6657 140.943 11.0524C140.943 12.4392 142.861 12.5882 142.861 12.5882H154.144C154.144 12.5882 157.935 12.8262 160.268 15.0512C162.193 16.8933 163.319 19.1989 163.319 19.1989" fill="#DF271C"/>
</svg>
