<svg width="25" height="26" viewBox="0 0 25 26" fill="none" xmlns="http://www.w3.org/2000/svg">
<path d="M15.9847 24.6025L10.5499 19.0775L12.3402 17.2575L15.9847 20.9625L23.2097 13.6175L25 15.4375L15.9847 24.6025ZM23.0179 11.7H20.4604V5.2H17.9028V9.1H5.11509V5.2H2.55754V23.4H10.2302V26H2.55754C1.85422 26 1.25213 25.7454 0.751279 25.2362C0.250426 24.7271 0 24.115 0 23.4V5.2C0 4.485 0.250426 3.87292 0.751279 3.36375C1.25213 2.85458 1.85422 2.6 2.55754 2.6H7.89642C8.13086 1.84167 8.58909 1.21875 9.2711 0.73125C9.95311 0.24375 10.6991 0 11.509 0C12.3615 0 13.1234 0.24375 13.7948 0.73125C14.4661 1.21875 14.919 1.84167 15.1535 2.6H20.4604C21.1637 2.6 21.7658 2.85458 22.2666 3.36375C22.7675 3.87292 23.0179 4.485 23.0179 5.2V11.7ZM11.509 5.2C11.8713 5.2 12.175 5.07542 12.4201 4.82625C12.6652 4.57708 12.7877 4.26833 12.7877 3.9C12.7877 3.53167 12.6652 3.22292 12.4201 2.97375C12.175 2.72458 11.8713 2.6 11.509 2.6C11.1466 2.6 10.8429 2.72458 10.5978 2.97375C10.3527 3.22292 10.2302 3.53167 10.2302 3.9C10.2302 4.26833 10.3527 4.57708 10.5978 4.82625C10.8429 5.07542 11.1466 5.2 11.509 5.2Z" fill="white"/>
</svg>
