<svg width="264" height="43" viewBox="0 0 264 43" fill="none" xmlns="http://www.w3.org/2000/svg">
<path d="M15.2374 43H0L38.5046 0.39645H49.7187V12.4005C49.7187 12.4005 54.1518 0.609507 65.7813 0.609507H103.455V26.4138C103.455 26.4138 103.018 33.113 111.283 33.113C121.777 33.113 120.8 26.8103 120.8 26.8103V0H143.652L161.838 22.8134V0H173.049V10.2025C173.049 10.2025 175.602 0 185.324 0C195.046 0 226.351 0.196875 226.351 0.196875L264 42.6062H250.045L225.509 16.8154V42.6062H214.727V32.8029C214.727 32.8029 210.698 42.8031 202.879 42.8031H162.048L144.499 21.0092V42.8031H132.426V31.3978C132.426 31.3978 129.896 43 111.078 43C92.2604 43 91.1833 32.2203 91.1833 32.2203V43H65.1555C65.1555 43 50.3473 39.8095 50.3473 30.3972V43H38.931V16.4001L15.2401 43H15.2374ZM91.1806 16.4918V12.4032H67.0577C67.0577 12.4032 61.9851 12.8132 61.9851 17.2011V23.6009C61.9851 23.6009 60.5065 31.2063 64.9506 31.2063H79.7588V27.0179H70.4524V16.4972H91.1778L91.1806 16.4918ZM173.689 18.0129V31.0094H202.458C202.458 31.0094 204.363 27.0152 201.184 27.0152H184.668C184.668 27.0152 180.439 27.8001 177.277 23.6009C174.298 19.6607 173.689 18.0156 173.689 18.0156M214.506 25.0141V12.4032H187.639C187.639 12.4032 185.119 12.5947 185.119 14.4017C185.119 16.2086 187.639 16.4028 187.639 16.4028H202.458C202.458 16.4028 207.436 16.7129 210.502 19.6121C213.03 22.0124 214.508 25.0168 214.508 25.0168" fill="white"/>
</svg>
